<?xml version="1.0" encoding="UTF-8" standalone="no"?>
<!-- Created with Inkscape (http://www.inkscape.org/) -->

<svg
   version="1.1"
   id="svg1842"
   width="450"
   height="450"
   viewBox="0 0 450 450"
   sodipodi:docname="logoVectorizado.svg"
   inkscape:version="1.2 (56b05e47e7, 2022-06-09, custom)"
   xmlns:inkscape="http://www.inkscape.org/namespaces/inkscape"
   xmlns:sodipodi="http://sodipodi.sourceforge.net/DTD/sodipodi-0.dtd"
   xmlns="http://www.w3.org/2000/svg"
   xmlns:svg="http://www.w3.org/2000/svg">
  <defs
     id="defs1846" />
  <sodipodi:namedview
     id="namedview1844"
     pagecolor="#ffffff"
     bordercolor="#666666"
     borderopacity="1.0"
     inkscape:showpageshadow="2"
     inkscape:pageopacity="0.0"
     inkscape:pagecheckerboard="0"
     inkscape:deskcolor="#d1d1d1"
     showgrid="false"
     inkscape:zoom="0.6882506"
     inkscape:cx="90.083467"
     inkscape:cy="191.79061"
     inkscape:window-width="1366"
     inkscape:window-height="683"
     inkscape:window-x="0"
     inkscape:window-y="0"
     inkscape:window-maximized="1"
     inkscape:current-layer="g2323" />
  <g
     inkscape:groupmode="layer"
     inkscape:label="Image"
     id="g1848">
    <g
       id="g2323"
       transform="translate(-62.106735,-15.442656)">
      <path
         style="fill:#a8dced"
         d="m 263.28521,370.03095 c -2.63268,-1.33283 -5.39015,-2.92415 -6.12771,-3.53628 -0.73757,-0.61213 -2.82412,-1.91552 -4.63679,-2.89644 -9.4199,-5.09755 -22.69984,-12.81404 -25.46634,-14.79757 -1.72598,-1.2375 -3.49163,-2.25 -3.92367,-2.25 -0.43203,0 -3.96256,-1.86412 -7.84563,-4.14249 -19.51026,-11.44756 -24.31266,-14.35712 -27.18669,-16.47118 -1.71962,-1.26491 -3.40712,-2.0943 -3.75,-1.84308 -0.34288,0.25121 -0.41319,0.17152 -0.15625,-0.17709 0.25695,-0.34861 -1.31805,-2.66197 -3.5,-5.14079 -2.18194,-2.47882 -3.96717,-4.90254 -3.96717,-5.38603 0,-0.4835 -1.04524,-2.55764 -2.32275,-4.60921 -5.44153,-8.73862 -5.68026,-11.56514 -5.64163,-66.79573 0.027,-38.64149 0.35432,-52.26643 1.35613,-56.45354 3.81433,-15.94214 12.83396,-26.23439 33.18552,-37.86778 7.1075,-4.0628 15.87478,-9.1253 19.48284,-11.25 3.60807,-2.12469 7.09557,-3.86308 7.75,-3.86308 0.65444,0 1.18989,-0.40986 1.18989,-0.91079 0,-0.50094 2.025,-1.89108 4.5,-3.08921 2.475,-1.19813 4.5,-2.61483 4.5,-3.14822 0,-0.5334 0.43729,-0.69955 0.97175,-0.36924 0.53447,0.33032 2.17764,-0.18954 3.65149,-1.15525 l 2.67974,-1.75583 -0.77243,3.96427 c -0.42484,2.18035 -0.68834,18.20688 -0.58556,35.61451 0.13776,23.33244 -0.12181,31.84101 -0.9877,32.37616 -0.64602,0.39926 -9.66471,0.72232 -20.04155,0.71791 -14.93633,-0.006 -19.10842,0.28292 -20.02592,1.38845 -2.95649,3.56235 -1.80028,21.666 1.26282,19.77291 0.68213,-0.42159 0.88662,-0.27822 0.49862,0.34958 -1.01788,1.64697 0.36962,4.24475 2.26717,4.24475 0.93744,0 2.64395,0.87528 3.79222,1.94506 2.0221,1.88386 2.09882,2.99594 2.43857,35.34689 0.3947,37.58344 0.21731,36.70805 7.43843,36.70805 6.23855,0 10.47045,4.00665 14.0368,13.28967 2.29522,5.97432 6.00166,12.00384 11.19417,18.21033 2.18088,2.60676 11.05613,9.97372 15.84583,13.15294 l 5.33555,3.54154 v 14.34374 c 0,7.88906 -0.37194,14.57362 -0.82653,14.85457 -0.4546,0.28096 -2.98055,-0.57967 -5.61322,-1.9125 z m 61.09316,1.83979 c -0.35937,-0.35938 -0.64479,-7.21591 -0.63425,-15.23675 l 0.0191,-14.58333 6.50605,-3.8047 c 3.89688,-2.27887 6.23346,-4.24577 5.82634,-4.90451 -0.41699,-0.67471 -0.2184,-0.8147 0.51379,-0.36218 2.59569,1.60423 14.20933,-13.45431 19.06307,-24.71767 4.12815,-9.57957 7.14678,-12.32893 14.5523,-13.25419 6.5424,-0.81742 6.73238,-1.20845 6.29664,-12.96011 l -0.29645,-7.99664 -8.23555,-0.29021 -8.23555,-0.29021 -1.72083,3.97206 c -4.65672,10.74879 -21.17694,10.80381 -26.55459,0.0884 -0.96058,-1.91404 -2.19808,-3.43507 -2.75,-3.38007 -0.55191,0.055 -4.60348,0.1675 -9.00348,0.25 -7.82667,0.14675 -8,0.20417 -8,2.65 0,1.375 0.5625,2.50689 1.25,2.51531 0.92525,0.0113 0.89955,0.23741 -0.0989,0.87015 -0.94721,0.60027 -0.28853,1.05377 2.21185,1.52285 3.09648,0.5809 3.64681,1.12671 4.22075,4.18603 0.93567,4.9876 -0.0559,13.45754 -1.69713,14.49694 -0.7626,0.48295 -5.37894,0.88499 -10.25852,0.89341 -8.4601,0.0146 -8.80828,0.10124 -7.5,1.86625 10.14335,13.68449 14.6886,23.51351 13.42264,29.0262 -2.55503,11.12596 -10.01915,16.32941 -21.0508,14.67511 -5.62152,-0.843 -10.85025,-5.65196 -12.63984,-11.62509 -2.17007,-7.24306 0.11161,-14.62111 7.67112,-24.80531 l 6.39981,-8.62185 -9.16135,-0.29012 c -5.03875,-0.15956 -9.74822,-0.77716 -10.46549,-1.37244 -0.85442,-0.70907 -1.30414,-3.60176 -1.30414,-8.38843 0,-7.70891 1.29952,-10.44898 4.9556,-10.44898 1.63975,0 1.84974,-1.26608 2.20043,-13.26699 0.44437,-15.2064 1.59321,-18.3091 8.49589,-22.945 4.01358,-2.69555 4.16627,-2.71473 22.53596,-2.83067 l 18.49501,-0.11674 3.40855,-3.9967 c 1.87471,-2.19819 4.65362,-4.65279 6.17535,-5.45467 2.32352,-1.22438 2.59918,-1.77115 1.72058,-3.41283 -1.21389,-2.26817 -3.97341,-2.13321 -6.42064,0.31401 -2.24275,2.24275 -6.82976,2.18142 -8.91174,-0.11915 -0.91025,-1.00581 -1.65499,-3.24425 -1.65499,-4.97432 0,-4.06241 4.84543,-7.04403 8.63861,-5.31574 1.29877,0.59176 2.36139,1.53557 2.36139,2.09736 0,0.62068 3.58288,1.02144 9.13197,1.02144 7.53895,0 9.72621,-0.36727 12.53851,-2.10537 2.9517,-1.82425 3.79872,-1.94292 6.34359,-0.8888 4.14261,1.71592 5.29437,7.51624 2.01912,10.16838 -2.87365,2.32694 -6.19566,2.32456 -9.07439,-0.006 -2.66212,-2.15565 -6.97705,-1.71994 -6.92085,0.69886 0.0209,0.89838 1.83227,2.87476 4.02532,4.39195 2.19306,1.51718 4.49821,3.87968 5.12257,5.25 1.06783,2.34363 1.59551,2.49147 8.89289,2.49147 10.98145,0 10.73527,0.20396 10.19264,-8.44486 -0.54023,-8.61036 0.38906,-10.8933 5.42065,-13.31677 5.17236,-2.49126 7.30798,-7.11371 7.30798,-15.81778 0,-10.52354 0.44215,-10.31932 -23.05412,-10.64831 l -19.44588,-0.27277 -0.21401,-33.24849 c -0.14277,-22.18114 -0.58582,-33.94324 -1.33102,-35.33565 -1.74431,-3.25927 -0.61045,-3.25045 4.96787,0.0386 2.84084,1.67503 5.4134,3.0455 5.7168,3.0455 0.30339,0 1.74609,0.83567 3.20599,1.85705 1.4599,1.02137 4.67937,2.97482 7.15437,4.341 2.475,1.36617 8.21748,4.693 12.76107,7.39295 4.54358,2.69995 10.71555,6.259 13.71548,7.909 16.27701,8.95256 24.96048,19.06894 28.60733,33.32798 1.76185,6.88876 1.91612,11.48987 1.91612,57.14832 0,30.46981 -0.40829,51.94907 -1.05668,55.59004 -2.34375,13.16099 -13.78863,28.63888 -25.44332,34.40919 -2.75,1.36154 -5.225,2.75673 -5.5,3.10041 -0.275,0.34368 -3.2,2.10966 -6.5,3.92439 -3.3,1.81472 -8.37124,4.80704 -11.26942,6.64959 -2.89818,1.84254 -5.53931,3.35008 -5.86919,3.35008 -0.32987,0 -3.13363,1.52917 -6.23058,3.39816 -3.09695,1.86899 -7.43081,4.40775 -9.63081,5.64168 -2.2,1.23394 -5.35,3.0761 -7,4.0937 -1.65,1.0176 -4.125,2.40718 -5.5,3.08797 -1.375,0.68078 -2.725,1.47194 -3,1.75814 -0.275,0.28619 -1.4,0.99645 -2.5,1.57836 -1.1,0.58191 -3.61846,2.03844 -5.59659,3.23675 -1.97812,1.1983 -3.89062,1.8847 -4.25,1.52532 z M 270.57679,194.74406 c -1.73151,-0.20046 -2.85176,-1.06583 -3.23634,-2.5 -0.3235,-1.20637 -0.59729,-16.1434 -0.60842,-33.1934 -0.023,-35.27017 -0.048,-35.38815 -8.17496,-38.56564 l -4.26737,-1.66848 7.1182,-4.56265 c 14.15021,-9.07005 22.47186,-11.757 36.36764,-11.74262 9.07372,0.009 20.23681,2.4831 21.8997,4.85289 0.30235,0.43087 3.53371,2.31379 7.1808,4.18427 8.34772,4.28126 12.85512,7.74463 10.82535,8.31793 -5.92178,1.67258 -7.50019,2.51724 -9.35428,5.0058 -2.01253,2.70122 -2.12347,4.25081 -2.60215,36.34821 l -0.5,33.52671 -26,0.15179 c -14.3,0.0835 -27.19168,0.0138 -28.64817,-0.15481 z"
         id="path2337" />
      <path
         style="fill:#58adcc"
         d="m 324.64962,371.39568 c -0.0414,-0.18976 -0.15394,-6.76409 -0.25,-14.60963 l -0.17466,-14.2646 6.3352,-3.70476 c 10.05371,-5.87931 19.53879,-16.41001 24.24584,-26.91869 4.67263,-10.43182 5.45993,-11.66977 8.96555,-14.09734 2.13393,-1.47771 4.71987,-2.25 7.53391,-2.25 5.13715,0 5.20833,-0.15931 5.58461,-12.5 l 0.27441,-9 -9.08364,-0.28572 -9.08364,-0.28573 -1.26583,3.05597 c -2.86349,6.91308 -11.4471,10.52949 -18.24766,7.68804 -3.42238,-1.42996 -8.75875,-7.22827 -8.75875,-9.51695 0,-0.79305 -2.98052,-1.15561 -9.5,-1.15561 h -9.5 v 4.5 c 0,4.29635 0.13092,4.5 2.89301,4.5 3.53879,0 4.1116,1.3064 4.09168,9.33179 -0.0223,8.98437 -0.25208,9.16821 -11.45905,9.16821 -6.86708,0 -9.4218,0.32776 -9.09965,1.16745 0.24634,0.6421 2.46833,3.7921 4.93777,7 12.21639,15.86963 12.95443,26.64891 2.37699,34.71672 -2.79572,2.1324 -4.51102,2.61583 -9.28139,2.61583 -8.75804,0 -13.75005,-3.93946 -16.83427,-13.28482 -1.70226,-5.15791 4.23838,-18.28534 12.74893,-28.17216 1.39995,-1.62634 2.36579,-3.13655 2.14631,-3.35602 -0.21947,-0.21947 -4.01056,-0.38934 -8.42465,-0.37748 -12.69394,0.0341 -12.21924,0.42105 -11.88277,-9.68585 l 0.28709,-8.62367 3.25,-0.31336 3.25,-0.31336 V 269.5524 c 0,-13.4896 0.71655,-16.95625 4.31661,-20.88366 4.77548,-5.2097 8.71187,-6.07232 27.81838,-6.09612 l 17.63499,-0.022 1.78987,-2.75 c 2.10397,-3.23258 4.09278,-4.96396 7.19015,-6.25944 1.49073,-0.62349 2.25,-1.79305 2.25,-3.46581 0,-2.2118 -0.42763,-2.52471 -3.45031,-2.52471 -2.14515,0 -3.79431,0.61469 -4.35971,1.625 -2.07997,3.71671 -10.18998,0.34553 -10.18998,-4.23578 0,-4.11986 7.41515,-7.00378 10,-3.88922 1.75588,2.11571 19.77013,2.1411 22.55887,0.0318 4.48663,-3.39351 9.78075,-0.63772 9.24513,4.81244 -0.21,2.13692 -1.13832,3.55945 -3.00238,4.60078 -2.50686,1.40042 -2.91809,1.34499 -5.79366,-0.78101 -3.94949,-2.91999 -8.37161,-2.62422 -8.8281,0.59046 -0.20903,1.47204 0.31156,2.4779 1.5,2.89826 1.00108,0.35409 3.66107,2.60208 5.9111,4.99553 l 4.09096,4.35174 h 9.12152 9.12151 l 0.28752,-9.23334 0.28753,-9.23335 4.26828,-2.35166 c 6.0933,-3.35718 7.36854,-6.43253 7.02029,-16.92999 -0.3824,-11.52684 0.10615,-11.29251 -23.28857,-11.17061 l -18,0.0938 -0.5,-33.43552 c -0.39327,-26.29834 -0.79296,-33.78814 -1.87244,-35.08742 -0.75485,-0.90856 -1.05218,-1.65191 -0.66073,-1.65191 0.39144,0 7.08404,3.66397 14.87244,8.14216 7.7884,4.47819 16.18573,9.26752 18.66073,10.64296 2.475,1.37543 5.69447,3.33646 7.15437,4.35783 1.4599,1.02138 2.93343,1.85705 3.27451,1.85705 1.68309,0 14.6469,8.86847 18.86991,12.9088 6.05003,5.78831 9.90685,11.80755 12.87341,20.0912 2.32706,6.49794 2.3278,6.51697 2.3278,60 0,53.35816 -0.006,53.51693 -2.30663,59.88657 -2.86877,7.943 -7.62945,15.3579 -13.32407,20.75265 -2.40311,2.27657 -14.2693,9.87269 -26.3693,16.88027 -12.1,7.00758 -25.6,14.86632 -30,17.46385 -4.4,2.59753 -10.25,5.96438 -13,7.48188 -2.75,1.51749 -6.9125,3.87638 -9.25,5.24195 -2.3375,1.36558 -4.2839,2.32761 -4.32534,2.13785 z m -16.9137,-35.09502 c 1.08986,-1.7875 1.95287,-4.6 1.91781,-6.25 -0.0536,-2.52259 -0.26487,-2.25298 -1.32751,1.6942 -0.69506,2.5818 -1.84479,5.3943 -2.55495,6.25 -0.71016,0.85569 -1.00449,1.5558 -0.65406,1.5558 0.35043,0 1.52885,-1.4625 2.61871,-3.25 z m -46.06518,31.43517 c -2.44518,-1.54815 -7.14578,-4.29465 -10.44578,-6.10332 -3.3,-1.80867 -10.275,-5.78756 -15.5,-8.84197 -5.225,-3.0544 -13.55,-7.90556 -18.5,-10.78034 -18.93922,-10.9992 -27.03963,-15.94011 -29.36982,-17.91434 -6.89944,-5.84549 -11.96104,-13.1371 -15.35909,-22.12593 -2.19664,-5.81074 -2.24351,-6.88182 -2.55607,-58.41927 -0.2805,-46.24925 -0.12281,-53.21437 1.32443,-58.5 2.2407,-8.18349 7.33422,-17.03724 13.12962,-22.82238 4.05785,-4.05066 14.69657,-11.37487 20.33093,-13.9968 0.825,-0.38391 2.85,-1.52833 4.5,-2.54316 2.51889,-1.54924 21.4071,-12.48248 33.28042,-19.26402 4.20781,-2.40333 4.26865,-2.38868 3.64059,0.87636 -0.29095,1.5125 -0.6172,16.925 -0.725,34.25 l -0.19601,31.5 -19.22054,0.5 c -24.31253,0.63246 -23.70183,0.28252 -23.08294,13.22714 0.42667,8.92423 0.48024,9.08619 4.02172,12.15879 1.97411,1.71274 4.6451,3.84906 5.93553,4.74738 l 2.34623,1.63332 0.32611,33.85592 c 0.20824,21.61949 0.70428,34.3116 1.37244,35.11669 0.57549,0.69342 2.61073,1.26076 4.52277,1.26076 6.35623,0 9.9843,2.59725 13.28294,9.50893 1.64766,3.45235 2.99574,6.57179 2.99574,6.93207 0,0.36029 1.62242,3.22096 3.60538,6.35704 4.74438,7.50332 14.47993,16.97936 21.64462,21.06768 l 5.75,3.28106 v 13.92661 c 0,15.70775 0.0587,15.6153 -7.05422,11.11178 z m 6.77015,-174.80257 c -0.33957,-0.33957 -0.64946,-15.19012 -0.68866,-33.00121 -0.0453,-20.58933 -0.45849,-33.2337 -1.13447,-34.71733 -1.15457,-2.53401 -5.73968,-5.66406 -8.29709,-5.66406 -3.34189,0 -1.25862,-1.72773 8.89484,-7.37684 14.11691,-7.85425 18.10668,-8.91534 31.87735,-8.47789 11.02249,0.35015 11.28372,0.41461 20.24658,4.99576 4.994,2.55256 11.06125,5.90169 13.48276,7.4425 l 4.40276,2.80149 -3.37693,0.70715 c -1.85732,0.38893 -4.55732,1.88694 -6,3.3289 l -2.62307,2.62175 -0.29942,33.97859 -0.29942,33.97859 h -27.78391 c -15.28116,0 -28.06175,-0.27783 -28.40132,-0.6174 z"
         id="path2335" />
      <path
         style="fill:#23a8df"
         d="m 324.64962,371.39568 c -0.0414,-0.18976 -0.15394,-6.76409 -0.25,-14.60963 l -0.17466,-14.2646 6.3352,-3.70476 c 10.05371,-5.87931 19.53879,-16.41001 24.24584,-26.91869 4.67263,-10.43182 5.45993,-11.66977 8.96555,-14.09734 2.14771,-1.48725 4.71808,-2.25 7.58224,-2.25 5.08741,0 5.08221,0.0122 5.64279,-13.25 l 0.36985,-8.75 h -9.30732 -9.30731 l -1.39224,3.3321 c -2.84166,6.80106 -11.07509,10.182 -17.87585,7.34046 -3.42238,-1.42996 -8.75875,-7.22827 -8.75875,-9.51695 0,-0.79305 -2.98052,-1.15561 -9.5,-1.15561 h -9.5 v 4.5 c 0,4.29635 0.13092,4.5 2.89301,4.5 3.53879,0 4.1116,1.3064 4.09168,9.33179 -0.0223,8.98267 -0.25555,9.1691 -11.46407,9.16307 -6.89208,-0.004 -9.42155,0.32092 -9.09671,1.16745 0.24748,0.64493 2.47041,3.79724 4.93985,7.00514 12.21639,15.86963 12.95443,26.64891 2.37699,34.71672 -2.79572,2.1324 -4.51102,2.61583 -9.28139,2.61583 -8.75804,0 -13.75005,-3.93946 -16.83427,-13.28482 -1.68108,-5.09374 2.98543,-15.72293 11.71451,-26.68289 1.95707,-2.45724 3.38357,-4.64245 3.17,-4.85602 -0.21357,-0.21357 -3.99983,-0.37861 -8.41392,-0.36675 -12.69394,0.0341 -12.21924,0.42105 -11.88277,-9.68585 l 0.28709,-8.62367 3.25,-0.31336 3.25,-0.31336 v -12.96876 c 0,-14.54049 0.91221,-17.96997 5.89508,-22.16278 4.74286,-3.99085 8.9943,-4.73005 27.23991,-4.73616 l 16.63499,-0.006 1.78987,-2.75 c 2.10397,-3.23258 4.09278,-4.96396 7.19015,-6.25944 1.49073,-0.62349 2.25,-1.79305 2.25,-3.46581 0,-2.21142 -0.42763,-2.52433 -3.45031,-2.52433 -2.14515,0 -3.79431,0.61469 -4.35971,1.625 -2.07997,3.71671 -10.18998,0.34553 -10.18998,-4.23578 0,-4.11986 7.41515,-7.00378 10,-3.88922 1.75588,2.11571 19.77013,2.1411 22.55887,0.0318 4.49698,-3.40134 9.77898,-0.63801 9.24513,4.83668 -0.22305,2.28749 -1.06541,3.48081 -3.16354,4.48163 -2.5718,1.22677 -3.14633,1.152 -5.70951,-0.74304 -1.56748,-1.15889 -4.21819,-2.10707 -5.89046,-2.10707 -2.58658,0 -3.04049,0.37791 -3.04049,2.53138 0,1.47502 0.72033,2.80781 1.72612,3.19376 2.5959,0.99614 7.154,5.32178 7.82046,7.42162 0.52046,1.63983 1.72765,1.85324 10.48328,1.85324 h 9.89509 l 0.28752,-9.18704 0.28753,-9.18704 4.34492,-2.56296 c 6.01676,-3.54914 7.07777,-5.97674 7.11964,-16.28991 0.0492,-12.11653 0.49434,-11.89058 -23.1009,-11.72617 l -18.36366,0.12795 -0.5,-33.43552 c -0.4143,-27.70477 -0.7571,-33.75075 -2,-35.27465 -2.18343,-2.67707 -0.65007,-1.9609 14,6.53875 6.875,3.98873 15.425,8.91881 19,10.95574 20.84392,11.87627 24.14555,14.01123 29.29879,18.94574 6.0518,5.79494 9.90776,11.81401 12.87341,20.09511 2.32706,6.49794 2.3278,6.51697 2.3278,60 0,53.35816 -0.006,53.51693 -2.30663,59.88657 -5.13972,14.23075 -12.07795,21.60877 -30.19337,32.1072 -6.875,3.98427 -16.55,9.5991 -21.5,12.47741 -4.95,2.8783 -11.7,6.71961 -15,8.53623 -3.3,1.81663 -6.675,3.84506 -7.5,4.50762 -0.825,0.66256 -4.18843,2.65791 -7.4743,4.43411 -3.28586,1.77619 -7.89836,4.35703 -10.25,5.73518 -2.35163,1.37815 -4.3096,2.35046 -4.35104,2.1607 z m -15.03935,-41.84502 c -0.10422,-3.49253 -0.10623,-3.49091 -0.9442,0.75861 -0.46187,2.34223 -1.53756,5.25486 -2.39043,6.4725 -0.85288,1.21765 -1.53664,2.67627 -1.51947,3.2414 0.0172,0.56512 1.13986,-0.77251 2.49488,-2.97251 1.49372,-2.4252 2.42254,-5.37795 2.35922,-7.5 z m -45.38531,38.531 c -1.65,-1.35249 -3.5625,-2.47526 -4.25,-2.49504 -0.6875,-0.0198 -1.25,-0.43718 -1.25,-0.92755 0,-0.49038 -1.125,-1.17395 -2.5,-1.51905 -1.375,-0.34511 -2.5,-1.0143 -2.5,-1.48709 0,-0.4728 -1.4625,-1.41236 -3.25,-2.08793 -5.88534,-2.22429 -10.23741,-4.49465 -11.04969,-5.76434 -0.43983,-0.6875 -1.46645,-1.25 -2.28138,-1.25 -0.81494,0 -1.74072,-0.675 -2.0573,-1.5 -0.31659,-0.825 -1.18129,-1.5 -1.92157,-1.5 -2.73611,0 -6.5146,-2.36338 -5.98499,-3.74351 0.38857,-1.01261 -0.0173,-1.21283 -1.50274,-0.74136 -1.53608,0.48753 -2.89341,-0.29117 -5.53563,-3.1758 -2.87569,-3.13952 -3.66883,-3.55552 -4.44331,-2.33052 -0.51852,0.82016 -0.94966,1.00109 -0.95808,0.40207 -0.008,-0.59901 -1.81015,-1.94901 -4.00384,-3 -2.19369,-1.05098 -3.99369,-2.24838 -4,-2.66088 -0.006,-0.4125 -0.93803,-0.75 -2.07049,-0.75 -1.30483,0 -1.79698,-0.42398 -1.34363,-1.15752 0.48654,-0.78723 0.0495,-0.98339 -1.36616,-0.61319 -1.58423,0.41429 -1.93937,0.17381 -1.48643,-1.00652 0.39144,-1.02008 0.19471,-1.30339 -0.57482,-0.8278 -1.78388,1.1025 -3.69675,-0.42114 -2.0267,-1.6143 1.00796,-0.72013 0.87602,-0.81277 -0.51323,-0.36034 -1.22022,0.39738 -2.52324,-0.14421 -3.75,-1.55868 -1.03401,-1.19222 -1.88001,-1.78781 -1.88001,-1.32353 0,0.46428 -0.70837,-0.0294 -1.57416,-1.09699 -0.86578,-1.06762 -1.23093,-1.26613 -0.81142,-0.44113 0.4195,0.825 -1.08404,-0.075 -3.3412,-2 -2.25716,-1.925 -4.14202,-4.0669 -4.18857,-4.75979 -0.0466,-0.69288 -0.98465,-2.03039 -2.08465,-2.97224 -2.13269,-1.82607 -2.77841,-3.86709 -0.84549,-2.67248 0.7153,0.44208 0.88306,0.27432 0.44098,-0.44098 -0.39244,-0.63498 -1.36197,-1.15451 -2.15451,-1.15451 -0.79254,0 -1.44098,-0.47656 -1.44098,-1.05902 0,-0.58246 0.5625,-0.7301 1.25,-0.3281 0.69626,0.40712 0.56641,-0.12048 -0.29313,-1.19099 -5.8605,-7.29896 -6.32915,-12.36117 -6.18997,-66.86232 0.11978,-46.90032 0.82288,-59.54917 3.22751,-58.06303 0.90836,0.5614 2.32777,-2.50769 1.52913,-3.30633 -0.28795,-0.28795 -0.52354,0.0765 -0.52354,0.80979 0,0.73333 -0.23559,1.09774 -0.52354,0.80979 -0.80825,-0.80824 0.62637,-3.86427 1.54695,-3.29532 0.44762,0.27664 1.13398,-0.96344 1.52526,-2.75574 0.39128,-1.7923 2.04079,-5.19488 3.66557,-7.56129 2.55375,-3.71938 3.17145,-4.12601 4.55719,-3 1.37276,1.11545 1.50923,1.05224 0.95004,-0.44 -0.38738,-1.03376 -0.0282,-2.25403 0.88314,-3 0.84487,-0.69159 2.27947,-2.04494 3.188,-3.00744 0.90853,-0.9625 2.2699,-1.75 3.02526,-1.75 0.75536,0 2.67728,-0.92846 4.27094,-2.06323 1.59365,-1.13478 3.34546,-1.78641 3.89291,-1.44807 0.55668,0.34405 0.75306,-0.0163 0.44557,-0.81758 -0.36441,-0.94964 0.494,-1.79663 2.5457,-2.51186 2.36719,-0.8252 2.92194,-0.79828 2.35785,0.11445 -0.40571,0.65644 1.31273,-0.48659 3.81875,-2.54009 2.50602,-2.05349 5.03505,-3.73362 5.62007,-3.73362 0.58502,0 1.21367,-0.3412 1.39701,-0.75822 0.62971,-1.43238 14.67699,-8.99795 14.14819,-7.61991 -0.29086,0.75797 -1.00569,1.37813 -1.58852,1.37813 -0.58282,0 -0.79872,0.26096 -0.47977,0.5799 0.31895,0.31895 1.7708,-0.2004 3.22633,-1.1541 1.98841,-1.30286 2.32079,-1.94053 1.33677,-2.56459 -0.92056,-0.58381 -0.64118,-0.83513 0.94033,-0.8459 1.2375,-0.008 2.25,-0.46531 2.25,-1.01531 0,-0.55 0.675,-1 1.5,-1 0.825,0 1.5,-0.39825 1.5,-0.88499 0,-0.48674 1.0125,-1.54883 2.25,-2.36019 l 2.25,-1.4752 -0.3004,34.07726 c -0.16523,18.74249 -0.47279,34.24964 -0.68347,34.46033 -0.21069,0.21068 -0.91105,0.0568 -1.55636,-0.34207 -0.87375,-0.54001 -0.83431,-0.93465 0.15451,-1.54577 0.73029,-0.45134 0.99298,-1.15544 0.58376,-1.56466 -0.40922,-0.40923 -1.43421,0.24131 -2.27774,1.44562 -1.47422,2.10474 -2.18356,2.18967 -18.28844,2.18967 -15.7534,0 -16.89243,0.12828 -19.05862,2.14639 -2.14259,1.99613 -2.27431,2.76485 -1.88153,10.98014 0.36514,7.63721 0.75325,9.19675 2.86532,11.51374 1.91584,2.10172 2.05416,2.54002 0.64103,2.03131 -1.1009,-0.39631 -1.55787,-0.25377 -1.17459,0.36639 0.34504,0.55829 1.15591,0.93216 1.80194,0.83083 1.46812,-0.23028 4.84575,1.17589 6.18576,2.57525 0.55614,0.58077 1.0801,5.33095 1.16434,10.55595 0.0842,5.225 0.30422,20.36503 0.48883,33.64451 0.30677,22.06654 0.49961,24.32571 2.24065,26.25 1.04774,1.15802 2.73524,2.10549 3.75,2.10549 1.01475,0 1.84501,0.47656 1.84501,1.05902 0,0.58246 0.45734,0.77636 1.01631,0.4309 0.55897,-0.34546 0.76623,-1.03276 0.46057,-1.52732 -0.67334,-1.0895 4.29077,0.94863 7.43831,3.05397 1.32876,0.88878 2.33303,2.64778 2.42606,4.24929 0.0873,1.503 0.49625,2.73305 0.90875,2.73343 0.4125,3.9e-4 0.75,0.61291 0.75,1.36116 0,0.74825 1.11144,2.99825 2.46986,5 1.35843,2.00175 1.98584,3.63955 1.39425,3.63955 -0.59159,0 0.32197,1.30554 2.03013,2.90121 3.42575,3.20013 4.07039,5.33595 1.35576,4.4919 -1.6548,-0.51452 -1.65436,-0.48267 0.008,0.58551 0.96686,0.62129 2.20436,0.85371 2.75,0.51649 0.54564,-0.33723 1.01292,-0.0241 1.03838,0.69587 0.0255,0.71996 1.76325,2.65902 3.86174,4.30902 2.09849,1.65 3.63678,3.47839 3.41843,4.0631 -0.21835,0.5847 0.58435,1.9347 1.78377,3 l 2.18078,1.9369 -1.25099,-2.38134 c -1.2037,-2.29134 -1.10527,-2.27245 2.60449,0.5 2.12052,1.58474 4.00641,3.22164 4.19089,3.63757 0.18448,0.41593 0.75043,0.49974 1.25767,0.18624 0.50724,-0.31349 1.70631,0.21406 2.66459,1.17233 1.46569,1.46569 1.76503,3.85743 1.88532,15.06376 0.0786,7.32679 -0.14636,13.3192 -0.5,13.31647 -0.35373,-0.003 -1.99307,-1.11155 -3.64307,-2.46403 z m 2.5,-1.531 c 0,-0.55 -0.19844,-1 -0.44098,-1 -0.24254,0 -0.7191,0.45 -1.05902,1 -0.33992,0.55 -0.14148,1 0.44098,1 0.58246,0 1.05902,-0.45 1.05902,-1 z m 0.73221,-14.25 c -0.21054,-2.3375 -0.3828,-0.425 -0.3828,4.25 0,4.675 0.17226,6.5875 0.3828,4.25 0.21053,-2.3375 0.21053,-6.1625 0,-8.5 z m -2.11614,-8.5625 c -1.04692,-1.04692 -1.61607,-1.18842 -1.61607,-0.40179 0,0.66786 0.45,1.21429 1,1.21429 0.55,0 1.03553,0.7875 1.07895,1.75 0.0541,1.1985 0.24822,1.32512 0.61607,0.40179 0.29542,-0.74152 -0.19011,-2.07545 -1.07895,-2.96429 z m -24.93296,-23.375 c -0.31922,-0.79773 -0.55618,-0.56078 -0.60416,0.60417 -0.0434,1.05416 0.19292,1.64479 0.52522,1.3125 0.33229,-0.33229 0.36781,-1.1948 0.0789,-1.91667 z m -68.95091,-48.0625 c -0.21053,-2.3375 -0.38279,-0.425 -0.38279,4.25 0,4.675 0.17226,6.5875 0.38279,4.25 0.21054,-2.3375 0.21054,-6.1625 0,-8.5 z m 41.97506,-16.98834 c -0.23919,-1.24391 -0.44398,-0.46166 -0.45508,1.73834 -0.0111,2.2 0.18461,3.21775 0.4349,2.26166 0.25029,-0.95609 0.25937,-2.75609 0.0202,-4 z m -42.00153,-57.01166 c -0.23835,-1.2375 -0.43337,-0.225 -0.43337,2.25 0,2.475 0.19502,3.4875 0.43337,2.25 0.23835,-1.2375 0.23835,-3.2625 0,-4.5 z m 34.02344,-5.35417 c -0.3323,-0.33229 -1.1948,-0.36781 -1.91667,-0.0789 -0.79773,0.31922 -0.56078,0.55618 0.60417,0.60416 1.05416,0.0434 1.64479,-0.19293 1.3125,-0.52522 z m -33.06689,-3.64583 c -0.27741,-0.6875 -0.50439,-0.125 -0.50439,1.25 0,1.375 0.22698,1.9375 0.50439,1.25 0.27741,-0.6875 0.27741,-1.8125 0,-2.5 z m 36.33772,2.80902 c 0,-0.24254 -0.45,-0.7191 -1,-1.05902 -0.55,-0.33992 -1,-0.14148 -1,0.44098 0,0.58246 0.45,1.05902 1,1.05902 0.55,0 1,-0.19844 1,-0.44098 z m 24.20625,-0.30241 c -4.01156,-0.1903 -10.31156,-0.18902 -14,0.003 -3.68844,0.19185 -0.40625,0.34755 7.29375,0.34599 7.7,-0.002 10.71781,-0.15853 6.70625,-0.34883 z m -43.20625,-30.25661 c 0,-0.55 -0.19844,-1 -0.44098,-1 -0.24254,0 -0.7191,0.45 -1.05902,1 -0.33992,0.55 -0.14148,1 0.44098,1 0.58246,0 1.05902,-0.45 1.05902,-1 z m 33.5,-21 c 1.31874,-0.56668 1.48906,-0.87815 0.5,-0.9144 -0.825,-0.0302 -2.175,0.38124 -3,0.9144 -1.82797,1.18132 -0.24909,1.18132 2.5,0 z m 20,-11 c 0.33992,-0.55 0.14148,-1 -0.44098,-1 -0.58246,0 -1.05902,0.45 -1.05902,1 0,0.55 0.19844,1 0.44098,1 0.24254,0 0.7191,-0.45 1.05902,-1 z m -29.20034,106 c 0,-3.025 0.18747,-4.2625 0.41659,-2.75 0.22913,1.5125 0.22913,3.9875 0,5.5 -0.22912,1.5125 -0.41659,0.275 -0.41659,-2.75 z m 55.27176,-73.20303 c 0.0393,-17.21333 -0.32428,-33.09032 -0.80789,-35.2822 -0.97905,-4.43729 -3.48056,-7.80769 -5.06712,-6.82714 -0.63526,0.39261 -0.78918,-0.003 -0.39773,-1.02359 0.3512,-0.91522 0.20267,-1.66404 -0.33006,-1.66404 -0.53274,0 -0.96862,-0.49814 -0.96862,-1.10699 0,-0.60884 0.60883,-0.87336 1.35295,-0.58781 0.74412,0.28554 2.08971,-0.34131 2.99021,-1.39301 0.9005,-1.05171 2.31667,-1.91219 3.14705,-1.91219 0.83039,0 1.50979,-0.45 1.50979,-1 0,-0.55 0.675,-1 1.5,-1 0.825,0 1.5,-0.37777 1.5,-0.83948 0,-0.46172 1.14617,-1.36172 2.54705,-2 3.17973,-1.44878 5.54018,-1.52728 3.45295,-0.11483 -1.09546,0.74131 -0.69092,0.83409 1.5,0.34401 3.70189,-0.82805 4.44679,-1.37997 1.91667,-1.42011 -1.83028,-0.029 -1.83452,-0.0782 -0.0942,-1.09022 1.00234,-0.58291 2.88726,-0.79257 4.18871,-0.46593 1.30145,0.32665 2.64542,0.14225 2.98658,-0.40977 1.05735,-1.71083 11.85121,-1.10593 18.58711,1.04164 7.13743,2.27559 26.91513,11.91751 26.91513,13.12153 0,0.42372 -0.67959,0.50961 -1.51021,0.19087 -1.94117,-0.7449 -8.485,4.21249 -8.5051,6.44318 -0.01,1.10928 -0.27036,1.29752 -0.75,0.54225 -0.40408,-0.63627 -0.60044,14.27597 -0.43636,33.1383 l 0.29833,34.29515 -27.79833,0.15868 -27.79833,0.15867 0.0714,-31.29697 z m 26.67858,29.45388 c -15.01298,-0.17731 -24.25,-0.66054 -24.25,-1.26863 0,-0.54022 -0.5051,-0.98222 -1.12244,-0.98222 -0.77551,0 -0.73766,0.46364 0.12244,1.5 1.05375,1.26969 4.94936,1.46448 25.37244,1.26863 l 24.12756,-0.23137 z m 27.49772,-45.50085 c -0.16896,-7.8375 -0.3072,-1.425 -0.3072,14.25 0,15.675 0.13824,22.0875 0.3072,14.25 0.16896,-7.8375 0.16896,-20.6625 0,-28.5 z m 8.25228,-28.75 c 0,-0.55 -0.47656,-1 -1.05902,-1 -0.58246,0 -0.7809,0.45 -0.44098,1 0.33992,0.55 0.81648,1 1.05902,1 0.24254,0 0.44098,-0.45 0.44098,-1 z m -28.27083,-12.60417 c -0.3323,-0.33229 -1.1948,-0.36781 -1.91667,-0.079 -0.79773,0.31923 -0.56078,0.55619 0.60417,0.60417 1.05416,0.0434 1.64479,-0.19293 1.3125,-0.52522 z m -45.16441,13.70895 c -0.3043,-0.49236 0.11914,-1.15324 0.94098,-1.46861 0.90766,-0.3483 1.49426,0.003 1.49426,0.89521 0,1.61739 -1.56262,1.98533 -2.43524,0.5734 z"
         id="path2333" />
      <path
         style="fill:#5d95ae"
         d="m 324.64962,371.39568 c -0.0414,-0.18976 -0.15394,-6.76409 -0.25,-14.60963 l -0.17466,-14.2646 6.3352,-3.70476 c 10.05371,-5.87931 19.53879,-16.41001 24.24584,-26.91869 4.67263,-10.43182 5.45993,-11.66977 8.96555,-14.09734 2.14771,-1.48725 4.71808,-2.25 7.58224,-2.25 5.08741,0 5.08221,0.0122 5.64279,-13.25 l 0.36985,-8.75 h -9.30732 -9.30731 l -1.39224,3.3321 c -2.84166,6.80106 -11.07509,10.182 -17.87585,7.34046 -3.42238,-1.42996 -8.75875,-7.22827 -8.75875,-9.51695 0,-0.79305 -2.98052,-1.15561 -9.5,-1.15561 h -9.5 v 4.5 c 0,4.29635 0.13092,4.5 2.89301,4.5 3.53879,0 4.1116,1.3064 4.09168,9.33179 -0.0223,8.98267 -0.25555,9.1691 -11.46407,9.16307 -6.89208,-0.004 -9.42155,0.32092 -9.09671,1.16745 0.24748,0.64493 2.47041,3.79724 4.93985,7.00514 12.21639,15.86963 12.95443,26.64891 2.37699,34.71672 -2.79572,2.1324 -4.51102,2.61583 -9.28139,2.61583 -8.75804,0 -13.75005,-3.93946 -16.83427,-13.28482 -1.68108,-5.09374 2.98543,-15.72293 11.71451,-26.68289 1.95707,-2.45724 3.38357,-4.64245 3.17,-4.85602 -0.21357,-0.21357 -3.99983,-0.37861 -8.41392,-0.36675 -12.69394,0.0341 -12.21924,0.42105 -11.88277,-9.68585 l 0.28709,-8.62367 3.25,-0.31336 3.25,-0.31336 v -12.96876 c 0,-14.54049 0.91221,-17.96997 5.89508,-22.16278 4.74286,-3.99085 8.9943,-4.73005 27.23991,-4.73616 l 16.63499,-0.006 1.78987,-2.75 c 2.10397,-3.23258 4.09278,-4.96396 7.19015,-6.25944 1.49073,-0.62349 2.25,-1.79305 2.25,-3.46581 0,-2.21142 -0.42763,-2.52433 -3.45031,-2.52433 -2.14515,0 -3.79431,0.61469 -4.35971,1.625 -2.07997,3.71671 -10.18998,0.34553 -10.18998,-4.23578 0,-4.11986 7.41515,-7.00378 10,-3.88922 1.75588,2.11571 19.77013,2.1411 22.55887,0.0318 4.49698,-3.40134 9.77898,-0.63801 9.24513,4.83668 -0.22305,2.28749 -1.06541,3.48081 -3.16354,4.48163 -2.5718,1.22677 -3.14633,1.152 -5.70951,-0.74304 -1.56748,-1.15889 -4.21819,-2.10707 -5.89046,-2.10707 -2.58658,0 -3.04049,0.37791 -3.04049,2.53138 0,1.47502 0.72033,2.80781 1.72612,3.19376 2.5959,0.99614 7.154,5.32178 7.82046,7.42162 0.52046,1.63983 1.72765,1.85324 10.48328,1.85324 h 9.89509 l 0.28752,-9.18704 0.28753,-9.18704 4.34492,-2.56296 c 6.01676,-3.54914 7.07777,-5.97674 7.11964,-16.28991 0.0492,-12.11653 0.49434,-11.89058 -23.1009,-11.72617 l -18.36366,0.12795 -0.5,-33.43552 c -0.4143,-27.70477 -0.7571,-33.75075 -2,-35.27465 -2.18343,-2.67707 -0.65007,-1.9609 14,6.53875 6.875,3.98873 15.425,8.91881 19,10.95574 20.84392,11.87627 24.14555,14.01123 29.29879,18.94574 6.0518,5.79494 9.90776,11.81401 12.87341,20.09511 2.32706,6.49794 2.3278,6.51697 2.3278,60 0,53.35816 -0.006,53.51693 -2.30663,59.88657 -5.13972,14.23075 -12.07795,21.60877 -30.19337,32.1072 -6.875,3.98427 -16.55,9.5991 -21.5,12.47741 -4.95,2.8783 -11.7,6.71961 -15,8.53623 -3.3,1.81663 -6.675,3.84506 -7.5,4.50762 -0.825,0.66256 -4.18843,2.65791 -7.4743,4.43411 -3.28586,1.77619 -7.89836,4.35703 -10.25,5.73518 -2.35163,1.37815 -4.3096,2.35046 -4.35104,2.1607 z m -15.03935,-41.84502 c -0.10422,-3.49253 -0.10623,-3.49091 -0.9442,0.75861 -0.46187,2.34223 -1.53756,5.25486 -2.39043,6.4725 -0.85288,1.21765 -1.53664,2.67627 -1.51947,3.2414 0.0172,0.56512 1.13986,-0.77251 2.49488,-2.97251 1.49372,-2.4252 2.42254,-5.37795 2.35922,-7.5 z m -44.88531,39.01771 c -2.33906,-1.81308 -2.35928,-1.90178 -0.31405,-1.37789 1.87812,0.48109 2.28317,0.0417 2.87635,-3.12023 1.17996,-6.28969 -0.0301,-18.27401 -2.07302,-20.53143 -2.29901,-2.54038 -1.19675,-3.83849 1.2131,-1.42865 1.53382,1.53381 1.8186,3.75254 1.94061,15.11905 0.0786,7.32679 -0.14636,13.31143 -0.5,13.2992 -0.35365,-0.0122 -1.76799,-0.89425 -3.14299,-1.96005 z m -19.5,-11.01771 c -0.33992,-0.55 -0.16803,-1 0.38197,-1 0.55,0 1.27811,0.45 1.61803,1 0.33992,0.55 0.16803,1 -0.38197,1 -0.55,0 -1.27811,-0.45 -1.61803,-1 z m -3.66486,-1.67293 c -0.91567,-0.24251 -1.91804,-1.10072 -2.22749,-1.90714 -0.44917,-1.17053 -0.17508,-1.25879 1.35916,-0.43769 1.54442,0.82655 4.00434,3.33801 2.84221,2.90176 -0.16996,-0.0638 -1.05821,-0.31442 -1.97388,-0.55693 z m -6.32806,-4.31562 c -0.35034,-0.56686 0.0511,-0.7345 0.94098,-0.39301 1.73242,0.66479 2.04939,1.38156 0.61096,1.38156 -0.51754,0 -1.21592,-0.44485 -1.55194,-0.98855 z m -5.50708,-3.01145 c -0.90129,-0.58246 -1.02463,-0.97549 -0.30902,-0.98469 0.65504,-0.008 1.4691,0.43469 1.80902,0.98469 0.7673,1.24153 0.42112,1.24153 -1.5,0 z m -8.13922,-5.05935 -2.36078,-2.05935 3,1.75669 c 3.94843,2.31206 4.00717,2.36201 2.77745,2.36201 -0.58073,0 -2.11823,-0.92671 -3.41667,-2.05935 z m 37.00779,-4.4505 c -1.44728,-0.78637 -2.90224,-2.1355 -3.23323,-2.99807 -0.39075,-1.01827 0.70749,-0.60465 3.13142,1.17936 2.05328,1.51122 3.92074,2.87836 4.14991,3.03811 1.34594,0.93823 -1.84754,-0.0237 -4.0481,-1.2194 z m -7.97924,-6.15264 c -0.88587,-0.23677 -2.16056,-1.64707 -2.83265,-3.134 l -1.22198,-2.70351 3.32765,3 c 1.83021,1.65 3.51741,3.1125 3.74932,3.25 0.56786,0.33668 -1.04076,0.11713 -3.02234,-0.41249 z m -54.38933,-4.00385 c -1.75761,-1.40848 -1.778,-1.52582 -0.16821,-0.96819 1.00748,0.34899 2.24498,0.63453 2.75,0.63453 0.50501,0 0.91821,0.45 0.91821,1 0,1.41626 -1.18199,1.19123 -3.5,-0.66634 z m -8.62756,-6.08366 c -1.24387,-1.58606 -1.2085,-1.62143 0.37756,-0.37756 0.9625,0.75485 1.75,1.54235 1.75,1.75 0,0.82304 -0.82119,0.29331 -2.12756,-1.37244 z m 54.40524,0.5 c -0.53197,-0.6875 -1.26295,-2.15 -1.62441,-3.25 -0.57157,-1.73939 -0.39634,-1.69238 1.34476,0.36078 1.10109,1.29844 2.00197,2.76094 2.00197,3.25 0,1.23324 -0.5835,1.11101 -1.72232,-0.36078 z m -60.27768,-5.75 c 0,-0.55 0.45,-1 1,-1 0.55,0 1,0.45 1,1 0,0.55 -0.45,1 -1,1 -0.55,0 -1,-0.45 -1,-1 z m 54.65629,-3.20633 c -0.78063,-2.98515 -0.47344,-3.0218 1.64039,-0.19573 1.43016,1.91203 1.50495,2.40206 0.36664,2.40206 -0.78653,0 -1.68969,-0.99285 -2.00703,-2.20633 z m -57.98962,-1.46034 c -0.36667,-0.36666 -0.66667,-1.13166 -0.66667,-1.7 0,-0.6266 0.46577,-0.56756 1.18333,0.15 0.65084,0.65084 0.95084,1.41584 0.66667,1.7 -0.28417,0.28417 -0.81667,0.21667 -1.18333,-0.15 z m -2.66667,-4.39235 c 0,-0.58246 0.45,-0.7809 1,-0.44098 0.55,0.33992 1,0.81648 1,1.05902 0,0.24254 -0.45,0.44098 -1,0.44098 -0.55,0 -1,-0.47656 -1,-1.05902 z m 56.16764,-5.88993 c -0.58498,-1.67808 -0.85087,-3.05105 -0.59087,-3.05105 0.6751,0 2.56204,5.19452 2.06683,5.68973 -0.2268,0.2268 -0.89098,-0.96061 -1.47596,-2.63868 z m -4.16764,-4.05105 c -0.90129,-0.58246 -1.02463,-0.97549 -0.30902,-0.98469 0.65504,-0.008 1.4691,0.43469 1.80902,0.98469 0.7673,1.24153 0.42112,1.24153 -1.5,0 z m -4.49292,-1.98855 c -0.35034,-0.56686 0.0511,-0.7345 0.94098,-0.39301 1.73242,0.66479 2.04939,1.38156 0.61096,1.38156 -0.51754,0 -1.21592,-0.44485 -1.55194,-0.98855 z m -52.62239,-8.26145 c -0.0634,-2.3375 -0.0722,-25.4 -0.0194,-51.25 0.0768,-37.62412 0.37927,-47.89769 1.51644,-51.5 0.7813,-2.475 1.46504,-3.74179 1.51942,-2.8151 0.0544,0.9267 -0.37752,2.9379 -0.95978,4.46935 -0.68868,1.81137 -1.10205,20.70554 -1.18285,54.0651 -0.0683,28.20436 -0.26692,51.28065 -0.44135,51.28065 -0.17443,0 -0.36904,-1.9125 -0.43246,-4.25 z m 43.38767,-31.75 c 0,-2.475 0.19502,-3.4875 0.43337,-2.25 0.23836,1.2375 0.23836,3.2625 0,4.5 -0.23835,1.2375 -0.43337,0.225 -0.43337,-2.25 z m 0.0273,-21 c 0,-3.025 0.18747,-4.2625 0.41659,-2.75 0.22913,1.5125 0.22913,3.9875 0,5.5 -0.22912,1.5125 -0.41659,0.275 -0.41659,-2.75 z m -2.79411,-10.99387 c -0.99854,-1.10337 -1.48864,-2.00613 -1.08911,-2.00613 1.0542,0 3.90477,3.01213 3.36314,3.55375 -0.25218,0.25218 -1.27549,-0.44425 -2.27403,-1.54762 z m -5.26701,-3.67223 c -0.6938,-0.27951 -1.76737,-1.48149 -2.38572,-2.67105 -1.05236,-2.02454 -0.95571,-2.00782 1.51146,0.26146 1.44965,1.33338 2.63572,2.57088 2.63572,2.75 0,0.36581 -0.0163,0.36265 -1.76146,-0.34041 z m -1.79741,-26.8657 c 1.56004,-1.17996 5.29015,-1.4242 19,-1.24408 l 17.05887,0.22413 -16.9752,0.30107 c -9.33636,0.1656 -17.41386,0.73974 -17.95,1.27588 -0.53614,0.53614 -1.4473,0.96049 -2.0248,0.943 -0.5775,-0.0175 -0.17649,-0.6925 0.89113,-1.5 z m 38.05887,-1.4682 c -0.33992,-0.55 -0.12512,-1 0.47734,-1 0.77313,0 1.06148,-9.2893 0.98019,-31.57674 -0.0979,-26.84628 -0.32809,-31.49504 -1.53636,-31.03138 -2.41181,0.92549 -1.56877,-1.06515 1.22685,-2.89691 2.62721,-1.72142 2.64304,-1.71642 2.01366,0.63499 -0.3489,1.30352 -0.64052,16.88254 -0.64803,34.62004 -0.0126,29.74185 -0.40795,34.65709 -2.51365,31.25 z m 26.5,-1.15499 c 0,-2.01547 0.11707,-2.04904 1.80824,-0.51855 1.54804,1.40096 5.25336,1.67781 25.75,1.92397 l 23.94176,0.28754 -25.75,0.23101 -25.75,0.23102 z m 53.88158,1.40499 c -0.0651,-0.4125 0.0474,-1.2 0.25,-1.75 0.20263,-0.55 0.60869,-15.175 0.90235,-32.5 l 0.53393,-31.5 0.21607,33.25 c 0.14065,21.64405 -0.13298,33.25 -0.78393,33.25 -0.55,0 -1.05329,-0.3375 -1.11842,-0.75 z m -148.85095,-12.75 c 0,-0.55 0.43621,-1.675 0.96937,-2.5 0.53316,-0.825 0.96937,-1.05 0.96937,-0.5 0,0.55 -0.43621,1.675 -0.96937,2.5 -0.53316,0.825 -0.96937,1.05 -0.96937,0.5 z m 3.96937,-8.44098 c 0,-0.51754 0.44485,-1.21592 0.98855,-1.55194 0.56686,-0.35034 0.7345,0.0511 0.39301,0.94098 -0.66479,1.73242 -1.38156,2.04939 -1.38156,0.61096 z m 4.04615,-6.12383 c 1.19462,-1.67769 2.46044,-2.73782 2.81294,-2.35586 0.3525,0.38196 0.0784,0.89537 -0.60909,1.14091 -0.6875,0.24553 -1.25,1.03578 -1.25,1.7561 0,0.72033 -0.70333,1.57957 -1.56295,1.90944 -1.1638,0.44659 -1.00825,-0.17923 0.6091,-2.45059 z m 3.95385,-3.36376 c 0,-0.23572 0.70714,-1.13572 1.57143,-2 2.30709,-2.30709 4.05316,-1.91907 1.92857,0.42857 -1.64323,1.81575 -3.5,2.6494 -3.5,1.57143 z m 5.76845,-5.73988 c 0.5811,-0.5811 1.64682,-0.85979 2.36826,-0.61931 0.74895,0.24965 0.29565,0.70294 -1.05655,1.05655 -1.66335,0.43497 -2.05378,0.30483 -1.31171,-0.43724 z m 10.23155,-5.73372 c 0,-0.4962 1.36541,-1.37816 3.03425,-1.95992 1.79824,-0.62688 2.79258,-0.66673 2.44098,-0.0978 -0.3263,0.52793 -1.24171,0.95989 -2.03425,0.95989 -0.79254,0 -1.44098,0.45 -1.44098,1 0,0.55 -0.45,1 -1,1 -0.55,0 -1,-0.40598 -1,-0.90217 z m 12.22619,-6.67149 c 0.94941,-0.99401 2.00045,-1.53304 2.33565,-1.19784 0.3352,0.3352 -0.44159,1.14849 -1.72619,1.80729 -2.23286,1.14512 -2.25968,1.1183 -0.60946,-0.60945 z m 3.80793,-2.25951 c 0.0188,-0.36676 3.35198,-2.50725 7.40715,-4.75664 4.05516,-2.2494 7.15373,-3.51835 6.8857,-2.81988 -0.26803,0.69847 -1.68874,1.75361 -3.15714,2.34476 -1.46841,0.59115 -4.58233,2.16016 -6.91983,3.4867 -2.3375,1.32653 -4.23465,2.11181 -4.21588,1.74506 z m 51.16083,-6.66683 c 0.0204,-1.65 0.2445,-2.20394 0.49804,-1.23097 0.25354,0.97297 0.23687,2.32297 -0.0371,3 -0.27393,0.67703 -0.48137,-0.11903 -0.46099,-1.76903 z m -34.38245,-3.18311 c 0.72187,-0.28887 1.58437,-0.25335 1.91667,0.0789 0.33229,0.3323 -0.25834,0.56864 -1.3125,0.52522 -1.16495,-0.048 -1.4019,-0.28494 -0.60417,-0.60416 z m 95.9375,-12.31512 c 1.63566,-1.83425 1.58605,-3.00177 -0.12756,-3.00177 -0.75765,0 -1.99515,-0.74818 -2.75,-1.66262 -1.48635,-1.80062 -1.24551,-1.73878 4.37756,1.12392 3.60714,1.83639 5.34772,4.08903 2.23727,2.89544 -0.83201,-0.31927 -2.29451,0.0106 -3.25,0.73316 -1.4762,1.11624 -1.54943,1.10299 -0.48727,-0.0881 z m -72.18524,-0.89699 c -0.3043,-0.49236 0.11914,-1.15324 0.94098,-1.46861 0.90766,-0.3483 1.49426,0.003 1.49426,0.89521 0,1.61739 -1.56262,1.98533 -2.43524,0.5734 z m 3.43524,-2.10478 c 0,-0.55 0.45,-1 1,-1 0.55,0 1,0.45 1,1 0,0.55 -0.45,1 -1,1 -0.55,0 -1,-0.45 -1,-1 z m 4,-2.39301 c 0,-0.21616 0.69837,-0.661 1.55194,-0.98855 0.88992,-0.34149 1.29132,-0.17385 0.94098,0.39301 -0.58726,0.95021 -2.49292,1.40545 -2.49292,0.59554 z m 56.55887,-2.13879 c -1.06762,-0.80751 -1.49113,-1.4682 -0.94113,-1.4682 0.55,0 1.87351,0.66069 2.94113,1.4682 1.06762,0.8075 1.49113,1.46819 0.94113,1.46819 -0.55,0 -1.87351,-0.66069 -2.94113,-1.46819 z m -46.55887,-3.89105 c 1.375,-0.82845 3.175,-1.50854 4,-1.5113 1.33333,-0.004 1.33333,0.0893 0,0.8436 -0.825,0.46674 -2.625,1.14683 -4,1.5113 l -2.5,0.66268 z m 7,-2.57715 c 0.825,-0.53315 2.4,-0.94464 3.5,-0.9144 l 2,0.055 -2,0.85943 c -1.1,0.47269 -2.675,0.88417 -3.5,0.9144 -1.33333,0.0489 -1.33333,-0.0527 0,-0.9144 z m 14.5,-1 -7,-0.64682 6.5,-0.10631 c 3.575,-0.0585 7.4,0.28045 8.5,0.75313 2.1881,0.94026 2.17553,0.94026 -8,0 z"
         id="path2331" />
      <path
         style="fill:#4d6390"
         d="m 324.72496,356.64612 v -13.90454 l 5.53584,-3.12424 c 11.45389,-6.46417 23.6053,-21.32012 28.00823,-34.24201 1.86399,-5.47051 7.9006,-9.82467 13.62091,-9.82467 5.13074,0 5.97462,-1.96518 5.62249,-13.09344 l -0.28747,-9.0849 -9.42628,0.002 -9.42629,0.002 -1.33662,3.33695 c -2.59612,6.48135 -11.79969,9.84949 -18.53208,6.78201 -2.43061,-1.10704 -6.77873,-6.72404 -6.77873,-8.7565 0,-0.83829 -2.94444,-1.18812 -10,-1.18812 h -10 v 4.5 c 0,3.77778 0.30952,4.5 1.92857,4.5 3.52946,0 5.07143,2.7333 5.07143,8.98964 0,9.23516 0.28958,9.01036 -11.60699,9.01036 -5.71615,0 -10.39301,0.34575 -10.39301,0.76833 0,0.42258 1.78936,2.93371 3.97637,5.58028 12.9339,15.65181 15.26324,26.77541 7.20327,34.39869 -4.40236,4.16383 -6.96801,5.2527 -12.37671,5.2527 -8.30686,0 -15.80293,-7.86949 -15.80293,-16.59015 0,-5.57484 3.8733,-13.37083 11.09681,-22.33513 2.69676,-3.34663 4.90319,-6.2923 4.90319,-6.54592 0,-0.25363 -4.8375,-0.58886 -10.75,-0.74497 l -10.75,-0.28383 -0.29104,-7.69285 c -0.26375,-6.97169 -0.0924,-7.79918 1.82815,-8.82701 1.16554,-0.62378 2.75901,-0.88862 3.54103,-0.58853 1.18341,0.45412 1.42186,-1.59633 1.42186,-12.22665 0,-11.66178 0.21846,-13.20233 2.51261,-17.71862 1.38194,-2.72049 3.68637,-5.7959 5.12096,-6.83426 3.35933,-2.43149 15.11498,-3.73154 30.82537,-3.40896 l 11.95893,0.24555 1.90528,-3.26228 c 1.0479,-1.79425 3.65388,-4.15435 5.79106,-5.24466 2.93672,-1.4982 3.88579,-2.58802 3.88579,-4.46205 0,-2.21324 -0.41664,-2.47968 -3.87756,-2.47968 -2.22676,0 -4.40754,0.63859 -5.12244,1.5 -1.4495,1.74654 -4.31821,1.93525 -7.06574,0.46482 -3.84558,-2.05809 -1.53902,-10.00122 2.88717,-9.94258 0.92321,0.0122 2.80357,0.90222 4.17857,1.97776 3.70675,2.89946 17.88179,2.85421 22.61682,-0.0722 3.941,-2.43567 7.00183,-1.85888 8.58599,1.61797 0.84961,1.86469 0.72465,2.916 -0.58401,4.91327 -1.87186,2.85682 -5.08518,3.25915 -8.05993,1.00916 -1.06762,-0.80751 -3.43012,-1.4682 -5.25,-1.4682 -2.97887,0 -3.30887,0.2871 -3.30887,2.87868 0,2.23989 0.64963,3.14777 2.92754,4.0913 1.61014,0.66695 4.10612,2.99359 5.54661,5.17032 l 2.61908,3.95769 9.45338,-0.17621 9.45339,-0.17622 v -7.30768 c 0,-8.6732 1.12515,-12.15476 4.32073,-13.36972 1.29613,-0.49279 3.5542,-2.31925 5.01794,-4.0588 2.4891,-2.95813 2.66133,-3.80271 2.66133,-13.0509 0,-8.75261 -0.22212,-10.00697 -1.93426,-10.92328 -1.13893,-0.60954 -9.75809,-1.03518 -20.96215,-1.03518 h -19.0279 l -0.28784,-34.25 c -0.15832,-18.8375 -0.27972,-34.33313 -0.26978,-34.43473 0.01,-0.10161 6.30994,3.46957 14,7.93595 46.91446,27.24787 47.15796,27.41899 53.73625,37.76431 7.47197,11.75077 7.21181,9.3712 7.54211,68.98447 0.32296,58.28863 0.36581,57.7467 -5.45998,69.05231 -4.67433,9.07104 -11.46026,15.78373 -22.4641,22.22163 -17.1344,10.02464 -41.29939,23.92511 -46.87235,26.96246 -3.025,1.64867 -6.625,3.76508 -8,4.70313 -3.09976,2.11472 -13.78442,8.06047 -14.48485,8.06047 -0.28333,0 -0.51515,-6.25704 -0.51515,-13.90454 z m -16.39762,-20.29344 c 1.64835,-3.18755 1.81398,-9.6728 0.30142,-11.80202 -0.81835,-1.15199 -0.9242,-0.8533 -0.45623,1.28747 0.77294,3.53588 -0.86538,9.70268 -3.45096,12.98971 -1.09814,1.39605 -1.99661,2.87454 -1.99661,3.28554 0,1.31257 4.15287,-2.95765 5.60238,-5.7607 z"
         id="path2329" />
      <path
         style="fill:#36538f"
         d="m 324.72496,356.6308 v -13.85226 l 3.40877,-1.61756 c 1.87482,-0.88966 4.23732,-1.34849 5.25,-1.01961 1.49656,0.48602 1.56494,0.40271 0.3653,-0.44503 -1.2298,-0.86905 -1.06304,-1.20773 1,-2.03094 1.36176,-0.54338 2.07372,-1.01649 1.58213,-1.05135 -0.49159,-0.0349 1.18422,-1.65008 3.72402,-3.58936 2.53981,-1.93929 6.14403,-5.52478 8.00938,-7.96776 1.86536,-2.44298 3.63205,-4.20129 3.92598,-3.90736 0.29393,0.29393 0.49134,-0.0581 0.43868,-0.78224 -0.0527,-0.72417 1.31758,-4.28969 3.04498,-7.92338 1.7274,-3.63369 3.42337,-7.73284 3.76882,-9.10924 0.68461,-2.7277 6.48234,-6.08354 12.38663,-7.16964 5.74319,-1.05645 6.09531,-1.82113 6.09531,-13.23685 v -10.37756 h -10 c -8.22222,0 -10,0.26667 -10,1.5 0,0.825 -0.7875,1.50689 -1.75,1.51531 -1.45565,0.0127 -1.50496,0.17032 -0.29316,0.93685 1.18027,0.74659 0.7396,1.59798 -2.3212,4.48469 -3.24805,3.0633 -4.45055,3.56315 -8.57198,3.56315 -5.39352,0 -9.1206,-2.27564 -11.60932,-7.0883 -1.44506,-2.79443 -1.41405,-2.91986 0.76998,-3.1144 1.25162,-0.11148 -3.34932,-0.44898 -10.22432,-0.75 -13.89272,-0.60828 -13.80101,-0.64954 -13.17387,5.92668 0.33996,3.56487 0.65441,3.94148 3.52357,4.2201 3.10399,0.30142 3.15939,0.40109 3.7687,6.78021 0.91726,9.60306 0.43841,10.02571 -11.35895,10.02571 -5.3677,0 -9.75945,0.38248 -9.75945,0.84996 0,0.46748 1.4625,2.78259 3.25,5.14469 6.53603,8.63706 7.75,10.47401 7.75,11.72713 0,0.70302 0.34015,1.27822 0.75589,1.27822 2.79882,0 5.15442,15.86055 2.48788,16.75122 -0.69093,0.23078 -0.99498,0.84232 -0.67567,1.35897 0.31931,0.51665 0.20961,0.81571 -0.24377,0.66459 -0.45338,-0.15113 -0.82433,-0.006 -0.82433,0.32153 0,3.33442 -9.52953,8.2972 -14.62099,7.61429 -7.6166,-1.0216 -14.87901,-8.87427 -14.87901,-16.08832 0,-4.1084 5.3472,-14.67641 10.97252,-21.6857 2.76512,-3.44539 5.02748,-6.6406 5.02748,-7.10047 0,-0.45986 -4.33789,-0.83611 -9.63976,-0.83611 -11.58073,0 -12.28159,-0.5532 -12.32844,-9.73095 -0.0306,-5.99495 0.0724,-6.25377 2.7182,-6.83352 1.5125,-0.33142 3.26946,-0.75935 3.90435,-0.95096 0.78805,-0.23784 1.19553,-4.54948 1.28411,-13.58723 0.14734,-15.03236 1.14636,-18.33328 6.87128,-22.70379 3.51846,-2.68605 3.58333,-2.69441 23.29453,-3.00124 l 19.76625,-0.30769 2.0311,-3.44244 c 1.1171,-1.89335 3.57946,-4.18082 5.47192,-5.08327 2.49163,-1.18817 3.55659,-2.42953 3.86046,-4.49986 0.44601,-3.0389 0.42463,-3.05116 -5.64821,-3.23838 -2.15282,-0.0664 -4.08514,-0.63013 -4.29405,-1.2528 -0.25748,-0.76745 1.16442,-1.02406 4.41422,-0.79665 l 4.79404,0.33547 -4.5,-0.8297 c -5.37328,-0.99071 -7.95627,-0.11551 -5.55086,1.8808 1.20117,0.99689 1.3059,1.63245 0.44075,2.67489 -1.77418,2.13775 -4.68389,1.61134 -6.51155,-1.17802 -1.38243,-2.10984 -1.45671,-2.93971 -0.43417,-4.85034 1.43268,-2.67699 6.24123,-3.29078 8.11288,-1.03558 0.8857,1.06721 3.76386,1.43515 11.31539,1.44657 6.17205,0.009 9.58846,0.35676 8.74728,0.88954 -0.92954,0.58873 -0.30072,0.81993 1.92557,0.70796 1.9552,-0.0983 3.46951,-0.76819 3.70642,-1.63954 0.34608,-1.27293 0.25988,-1.27044 -0.63394,0.0184 -0.82388,1.18796 -1.28727,1.23886 -2.27613,0.25 -0.91973,-0.91973 -0.94997,-1.53331 -0.11664,-2.36664 1.56849,-1.56849 6.32367,-1.40726 7.37342,0.25 1.2212,1.92793 1.11543,5.875 -0.15744,5.875 -0.58246,0 -0.80092,0.4176 -0.48548,0.928 0.90975,1.472 -3.17094,2.29466 -5.41773,1.09222 -2.49838,-1.3371 -2.66436,-2.15227 -0.28777,-1.41333 1.40328,0.43632 1.45281,0.36533 0.25,-0.3583 -1.26684,-0.76215 -5.40096,-0.92904 -9.53729,-0.38502 -0.57051,0.075 -1.13949,1.47768 -1.26441,3.11699 -0.19449,2.55252 0.27829,3.19173 3.2921,4.45098 2.01826,0.84329 4.3959,2.95631 5.57476,4.95432 l 2.05555,3.48391 9.81559,0.31511 c 7.30094,0.23439 10.13893,-0.0322 11.07774,-1.04051 1.01707,-1.09239 1.00968,-1.51168 -0.038,-2.15921 -0.9214,-0.56946 -0.59746,-0.93602 1.1119,-1.25818 2.32022,-0.4373 2.3264,-0.4598 0.16211,-0.5908 -1.2375,-0.0749 -2.25,-0.61274 -2.25,-1.1952 0,-0.58246 0.3375,-0.85041 0.75,-0.59545 0.4125,0.25497 0.60335,-1.40598 0.42411,-3.69098 -0.42392,-5.40416 1.18547,-9.46057 4.20969,-10.61037 1.33082,-0.50598 3.58889,-2.45288 5.01793,-4.32646 2.35702,-3.0902 2.59827,-4.24998 2.59827,-12.49068 0,-6.92501 -0.3735,-9.45769 -1.57143,-10.65561 -1.32062,-1.3206 -4.66851,-1.57146 -20.97216,-1.57146 h -19.40067 l -0.2779,-30.98863 c -0.2559,-28.53654 -0.14607,-30.94674 1.38795,-30.45932 0.91622,0.29112 1.99825,-0.009 2.40451,-0.66588 0.47627,-0.77061 0.31298,-0.9321 -0.45965,-0.45459 -1.36106,0.84118 -4.35497,-1.22733 -3.58338,-2.47579 0.27792,-0.44968 0.048,-1.10025 -0.51101,-1.44571 -0.55897,-0.34546 -1.01631,-1.1213 -1.01631,-1.72408 0,-0.6243 0.75315,-0.43187 1.75,0.44712 0.9625,0.8487 4,2.74804 6.75,4.22075 2.75,1.47272 6.8,3.78275 9,5.13342 2.2,1.35066 5.575,3.23356 7.5,4.18423 1.925,0.95066 3.725,1.98673 4,2.30237 0.275,0.31563 3.425,2.11563 7,4 3.575,1.88436 6.725,3.65532 7,3.93547 1.30175,1.32611 8.77062,5.78306 10.73704,6.40718 1.21593,0.38592 3.06279,1.78482 4.10412,3.10866 1.04133,1.32384 2.24977,2.08474 2.68541,1.69089 0.43565,-0.39385 0.50055,0.0948 0.14421,1.08585 -0.36653,1.01945 -0.241,1.55048 0.28909,1.22286 1.07102,-0.66193 7.84801,8.24257 10.25563,13.4752 4.82891,10.49496 4.90286,11.57894 4.58257,67.17703 l -0.30141,52.32297 -2.39753,6 c -3.53212,8.83939 -8.0666,15.41975 -14.69931,21.33138 -6.39159,5.69674 -9.59321,7.08293 -11.91281,5.15784 -1.03316,-0.85745 -1.48701,-0.89153 -1.48701,-0.11166 0,0.61734 0.45,1.12244 1,1.12244 1.6726,0 1.11602,2.01914 -0.75,2.7208 -0.9625,0.36192 -4.95699,2.5978 -8.87664,4.96862 -3.91965,2.37082 -7.41818,4.31058 -7.77451,4.31058 -0.35633,0 -3.49797,1.8 -6.98142,4 -3.48346,2.2 -6.63208,4 -6.99693,4 -0.74762,0 -8.84832,5.14129 -9.6205,6.10586 -0.275,0.34352 -1.625,0.97597 -3,1.40545 -1.375,0.42948 -4.17856,1.84013 -6.23013,3.13478 -2.05157,1.29465 -4.15157,2.35391 -4.66666,2.35391 -0.5151,0 -1.08654,0.37457 -1.26988,0.83237 -0.18333,0.4578 -2.92083,2.24259 -6.08333,3.9662 l -5.75,3.13382 z m 2.7384,-4.29662 c -0.20264,-2.90594 -0.37057,-0.78352 -0.37317,4.71648 -0.003,5.5 0.16319,7.87758 0.36844,5.28352 0.20525,-2.59406 0.20738,-7.09406 0.005,-10 z m 11.7616,7.21648 c 0.33992,-0.55 0.14148,-1 -0.44098,-1 -0.58246,0 -1.05902,0.45 -1.05902,1 0,0.55 0.19844,1 0.44098,1 0.24254,0 0.7191,-0.45 1.05902,-1 z m 19,-10 c 0.33992,-0.55 0.16803,-1 -0.38197,-1 -0.55,0 -1.27811,0.45 -1.61803,1 -0.33992,0.55 -0.16803,1 0.38197,1 0.55,0 1.27811,-0.45 1.61803,-1 z m -62.77083,-5.60417 c -0.3323,-0.33229 -1.1948,-0.36781 -1.91667,-0.0789 -0.79773,0.31922 -0.56078,0.55618 0.60417,0.60416 1.05416,0.0434 1.64479,-0.19293 1.3125,-0.52522 z m -2.72917,-1.78233 c 0,-0.21258 -1.32623,-0.58115 -2.94719,-0.81906 -1.62095,-0.2379 -2.71939,-0.064 -2.44098,0.3865 0.49551,0.80176 5.38817,1.19454 5.38817,0.43256 z m 12.12884,-0.8635 c 3.36561,-2.78407 5.27725,-7.29736 5.28844,-12.48571 0.006,-2.87965 -0.52764,-5.77465 -1.18633,-6.43334 -1.41842,-1.41842 -1.75867,-1.14224 -2.67223,2.16905 -0.46209,1.67488 -0.38171,2.05608 0.24352,1.15498 0.71328,-1.028 1.07975,-0.76132 1.55481,1.13146 0.71654,2.85496 -1.11709,8.9799 -2.44301,8.16044 -0.49012,-0.30292 -0.68396,0.0351 -0.43074,0.75118 0.54631,1.54493 -1.20056,3.99823 -3.9833,5.59412 -1.98618,1.13908 -1.98577,1.14721 0.0589,1.17741 1.13238,0.0167 2.73887,-0.53209 3.56997,-1.21959 z m -19.84317,-4.76558 c -0.49565,-1.89539 -2.28567,-3.83579 -2.28567,-2.4777 0,0.85034 1.97951,4.49328 2.44156,4.49328 0.20416,0 0.13401,-0.90701 -0.15589,-2.01558 z m 56.44146,-1.98442 c 1.39842,-1.1 2.10076,-2 1.56074,-2 -0.54002,0 -2.01956,0.9 -3.28787,2 -1.26831,1.1 -1.97064,2 -1.56074,2 0.40991,0 1.88945,-0.9 3.28787,-2 z m 7.40043,-5.75 c 1.24387,-1.58606 1.2085,-1.62143 -0.37756,-0.37756 -1.66575,1.30637 -2.19548,2.12756 -1.37244,2.12756 0.20765,0 0.99515,-0.7875 1.75,-1.75 z m 48.87244,-1.25 c 0,-0.55 -0.19844,-1 -0.44098,-1 -0.24254,0 -0.7191,0.45 -1.05902,1 -0.33992,0.55 -0.14148,1 0.44098,1 0.58246,0 1.05902,-0.45 1.05902,-1 z m 2.80687,-3.52646 c -0.30789,-0.30789 -0.86705,0.24711 -1.24258,1.23333 -0.54268,1.4252 -0.42782,1.54006 0.5598,0.5598 0.68342,-0.67834 0.99067,-1.48524 0.68278,-1.79313 z m 4.19313,-3.47354 c 0,-0.55 -0.19844,-1 -0.44098,-1 -0.24254,0 -0.7191,0.45 -1.05902,1 -0.33992,0.55 -0.14148,1 0.44098,1 0.58246,0 1.05902,-0.45 1.05902,-1 z m -48,-2 c 0,-0.55 -0.45,-1 -1,-1 -0.55,0 -1,0.45 -1,1 0,0.55 0.45,1 1,1 0.55,0 1,-0.45 1,-1 z m 52.68311,-7.1875 c -0.31922,-0.79773 -0.55618,-0.56078 -0.60416,0.60417 -0.0434,1.05416 0.19293,1.64479 0.52522,1.3125 0.33229,-0.33229 0.36781,-1.1948 0.0789,-1.91667 z m 3.81689,1.1875 c 0.33992,-0.55 0.14148,-1 -0.44098,-1 -0.58246,0 -1.05902,0.45 -1.05902,1 0,0.55 0.19844,1 0.44098,1 0.24254,0 0.7191,-0.45 1.05902,-1 z m -112.5,-2 c 0,-0.55 -0.45,-1 -1,-1 -0.55,0 -1,0.45 -1,1 0,0.55 0.45,1 1,1 0.55,0 1,-0.45 1,-1 z m 58.68311,-2.1875 c -0.31922,-0.79773 -0.55618,-0.56078 -0.60416,0.60417 -0.0434,1.05416 0.19293,1.64479 0.52522,1.3125 0.33229,-0.33229 0.36781,-1.1948 0.0789,-1.91667 z m -62.32148,-2.3125 c -0.31659,-0.825 -0.96334,-1.5 -1.43723,-1.5 -0.4739,0 -0.60261,0.675 -0.28603,1.5 0.31659,0.825 0.96334,1.5 1.43723,1.5 0.4739,0 0.60261,-0.675 0.28603,-1.5 z m 19.92404,-9.48442 c 0.2899,-1.10857 0.11922,-2.01558 -0.37929,-2.01558 -0.49851,0 -0.90638,0.4132 -0.90638,0.91821 0,0.50502 -0.30147,1.70384 -0.66994,2.66405 -0.42128,1.09783 -0.28049,1.50514 0.37929,1.09737 0.57708,-0.35665 1.28643,-1.55548 1.57632,-2.66405 z m 56.96433,1.27869 c -1.2375,-0.23836 -3.2625,-0.23836 -4.5,0 -1.2375,0.23835 -0.225,0.43337 2.25,0.43337 2.475,0 3.4875,-0.19502 2.25,-0.43337 z m -96.56689,-2.48177 c -0.31922,-0.79773 -0.55618,-0.56078 -0.60416,0.60417 -0.0434,1.05416 0.19292,1.64479 0.52522,1.3125 0.33229,-0.33229 0.36781,-1.1948 0.0789,-1.91667 z m 101.97917,-2.0625 c -0.27741,-0.6875 -0.50439,-0.125 -0.50439,1.25 0,1.375 0.22698,1.9375 0.50439,1.25 0.27741,-0.6875 0.27741,-1.8125 0,-2.5 z m 40.33299,-1.46232 c -1.08961,-1.69929 -1.11783,-1.69711 -0.57078,0.0441 0.31653,1.00748 0.61104,2.35748 0.65446,3 0.057,0.84316 0.21579,0.83088 0.57077,-0.0441 0.27051,-0.66678 -0.024,-2.01678 -0.65445,-3 z m -143.0259,-0.78768 c 0,-0.55 -0.43621,-0.325 -0.96937,0.5 -0.53316,0.825 -0.96937,1.95 -0.96937,2.5 0,0.55 0.43621,0.325 0.96937,-0.5 0.53316,-0.825 0.96937,-1.95 0.96937,-2.5 z m 39.69291,-1.75 c -0.27741,-0.6875 -0.50439,-0.125 -0.50439,1.25 0,1.375 0.22698,1.9375 0.50439,1.25 0.27741,-0.6875 0.27741,-1.8125 0,-2.5 z m -40,-4 c -0.27741,-0.6875 -0.50439,-0.125 -0.50439,1.25 0,1.375 0.22698,1.9375 0.50439,1.25 0.27741,-0.6875 0.27741,-1.8125 0,-2.5 z m 2,0 c -0.27741,-0.6875 -0.50439,-0.125 -0.50439,1.25 0,1.375 0.22698,1.9375 0.50439,1.25 0.27741,-0.6875 0.27741,-1.8125 0,-2.5 z m 64.33772,-2.19098 c 0,-0.24254 -0.45,-0.7191 -1,-1.05902 -0.55,-0.33992 -1,-0.14148 -1,0.44098 0,0.58246 0.45,1.05902 1,1.05902 0.55,0 1,-0.19844 1,-0.44098 z m 7.93432,-2.40335 c -1.4225,-0.48966 -3.93432,0.60773 -3.93432,1.71886 0,0.524 1.08796,0.4276 2.46731,-0.21862 1.35702,-0.63575 2.01718,-1.31086 1.46701,-1.50024 z m -12.49162,-0.57391 c -1.06675,-0.78003 -2.15223,-1.20556 -2.41217,-0.94563 -0.55036,0.55036 2.02834,2.32607 3.4106,2.34856 0.51762,0.008 0.0683,-0.6229 -0.99843,-1.40293 z m 5.95429,0.58491 c 0.28327,-0.45834 -0.12038,-0.83334 -0.89699,-0.83334 -0.77661,0 -1.18026,0.375 -0.89699,0.83334 0.28326,0.45833 0.68691,0.83333 0.89699,0.83333 0.21008,0 0.61373,-0.375 0.89699,-0.83333 z m -60.658,-17.91667 c -0.19845,-3.1625 -0.36082,-0.575 -0.36082,5.75 0,6.325 0.16237,8.9125 0.36082,5.75 0.19845,-3.1625 0.19845,-8.3375 0,-11.5 z m 56.99018,15.14583 c -0.33229,-0.33229 -1.1948,-0.36781 -1.91667,-0.0789 -0.79773,0.31922 -0.56078,0.55618 0.60417,0.60416 1.05416,0.0434 1.64479,-0.19293 1.3125,-0.52522 z m -3.72917,-0.83681 c 0,-0.24254 -0.45,-0.7191 -1,-1.05902 -0.55,-0.33992 -1,-0.14148 -1,0.44098 0,0.58246 0.45,1.05902 1,1.05902 0.55,0 1,-0.19844 1,-0.44098 z m -2.27083,-5.16319 c -0.33229,-0.33229 -1.1948,-0.36781 -1.91667,-0.0789 -0.79773,0.31922 -0.56078,0.55618 0.60417,0.60416 1.05416,0.0434 1.64479,-0.19293 1.3125,-0.52522 z m -10.47917,-1.12804 c -2.3375,-0.21053 -6.1625,-0.21053 -8.5,0 -2.3375,0.21054 -0.425,0.3828 4.25,0.3828 4.675,0 6.5875,-0.17226 4.25,-0.3828 z m 48,0 c -2.3375,-0.21053 -6.1625,-0.21053 -8.5,0 -2.3375,0.21054 -0.425,0.3828 4.25,0.3828 4.675,0 6.5875,-0.17226 4.25,-0.3828 z m -85.56689,-12.45529 c -0.31922,-0.79773 -0.55618,-0.56078 -0.60416,0.60417 -0.0434,1.05416 0.19292,1.64479 0.52522,1.3125 0.33229,-0.3323 0.36781,-1.1948 0.0789,-1.91667 z m 134.02262,-12.0625 c -0.23835,-1.2375 -0.43337,-0.225 -0.43337,2.25 0,2.475 0.19502,3.4875 0.43337,2.25 0.23836,-1.2375 0.23836,-3.2625 0,-4.5 z m -36.97656,-9.35417 c -0.33229,-0.33229 -1.1948,-0.36781 -1.91667,-0.0789 -0.79773,0.31922 -0.56078,0.55618 0.60417,0.60416 1.05416,0.0434 1.64479,-0.19293 1.3125,-0.52522 z m -37.72917,-7.39583 c 0,-0.55 -0.19844,-1 -0.44098,-1 -0.24254,0 -0.7191,0.45 -1.05902,1 -0.33992,0.55 -0.14148,1 0.44098,1 0.58246,0 1.05902,-0.45 1.05902,-1 z m -18.31689,-4.1875 c -0.31922,-0.79773 -0.55618,-0.56078 -0.60416,0.60417 -0.0434,1.05416 0.19292,1.64479 0.52522,1.3125 0.33229,-0.3323 0.36781,-1.1948 0.0789,-1.91667 z m 35,-1 c -0.31922,-0.79773 -0.55618,-0.56078 -0.60416,0.60417 -0.0434,1.05416 0.19293,1.64479 0.52522,1.3125 0.33229,-0.3323 0.36781,-1.1948 0.0789,-1.91667 z m -11.93311,0.49817 c -0.9625,-0.25152 -2.5375,-0.25152 -3.5,0 -0.9625,0.25153 -0.175,0.45733 1.75,0.45733 1.925,0 2.7125,-0.2058 1.75,-0.45733 z m -18.25235,-3.14635 c -0.71515,-0.71516 -3.49765,0.72697 -3.49765,1.81277 0,0.65816 0.71745,0.5918 1.95452,-0.18076 1.07499,-0.67134 1.7694,-1.40575 1.54313,-1.63201 z m 89.16463,-28.41432 c -0.27741,-0.6875 -0.50439,-0.125 -0.50439,1.25 0,1.375 0.22698,1.9375 0.50439,1.25 0.27741,-0.6875 0.27741,-1.8125 0,-2.5 z m -37.39463,-2.25 c -0.12779,-0.55 -2.15279,-1.04947 -4.5,-1.10994 l -4.26765,-0.10994 4.5,0.60731 c 2.84411,0.38384 -1.57158,0.81092 -12,1.16062 l -16.5,0.55331 16.5,-0.0507 c 10.46268,-0.0321 16.41498,-0.41658 16.26765,-1.05068 z m 5.73235,0.53138 c 0,-0.53273 -0.675,-0.70959 -1.5,-0.39301 -0.825,0.31659 -1.5,0.75246 -1.5,0.96862 0,0.21615 0.675,0.39301 1.5,0.39301 0.825,0 1.5,-0.43588 1.5,-0.96862 z m -31.75,-1.73711 c -1.2375,-0.23836 -3.2625,-0.23836 -4.5,0 -1.2375,0.23835 -0.225,0.43337 2.25,0.43337 2.475,0 3.4875,-0.19502 2.25,-0.43337 z m 62.09371,-4.08794 c -0.31734,-1.21348 -0.97449,-2.20633 -1.46034,-2.20633 -1.18627,0 -1.11327,0.659 0.32878,2.96809 1.49652,2.39632 1.88842,2.1325 1.13156,-0.76176 z m -9.34371,-16.64731 c 0,-0.24254 -0.45,-0.7191 -1,-1.05902 -0.55,-0.33992 -1,-0.14148 -1,0.44098 0,0.58246 0.45,1.05902 1,1.05902 0.55,0 1,-0.19844 1,-0.44098 z m -30,-21.95203 c 0,-0.21616 -0.675,-0.65203 -1.5,-0.96862 -0.825,-0.31658 -1.5,-0.13972 -1.5,0.39301 0,0.53274 0.675,0.96862 1.5,0.96862 0.825,0 1.5,-0.17686 1.5,-0.39301 z m -29.5,-17.60699 c 0.33992,-0.55 0.14148,-1 -0.44098,-1 -0.58246,0 -1.05902,0.45 -1.05902,1 0,0.55 0.19844,1 0.44098,1 0.24254,0 0.7191,-0.45 1.05902,-1 z"
         id="path2327" />
      <path
         style="fill:#354b71"
         d="m 324.72496,356.66123 v -13.82182 l 6.25,-3.12363 c 3.4375,-1.718 5.89564,-3.13297 5.46254,-3.14437 -0.4331,-0.0114 1.55167,-1.93325 4.41061,-4.27075 6.27287,-5.12877 11.76982,-12.82498 15.89188,-22.25 1.94155,-4.43933 2.82713,-5.77297 2.42086,-3.64572 -0.84419,4.42027 -4.07475,11.64172 -6.12532,13.6923 -1.38445,1.38444 -1.41858,1.77188 -0.22275,2.52886 1.19478,0.75632 1.18126,0.9019 -0.0878,0.94569 -0.825,0.0285 -2.74459,1.69192 -4.26576,3.69656 -2.12302,2.79778 -2.4716,3.85699 -1.5,4.55789 0.87817,0.63349 0.70771,0.73219 -0.55668,0.32234 -1.88454,-0.61088 -5.13923,0.72089 -7.47835,3.06002 -0.95725,0.95725 -0.99974,1.34206 -0.14819,1.34206 0.90249,0 0.89004,0.3661 -0.051,1.5 -0.68469,0.825 -2.31479,1.5 -3.62244,1.5 -1.30766,0 -2.37756,0.45 -2.37756,1 0,0.55 -0.88417,1 -1.96482,1 -1.08065,0 -2.3633,0.7875 -2.85033,1.75 -1.38155,2.73028 -1.56957,23.25 -0.21303,23.25 2.00925,0 7.02818,-3.01762 7.02818,-4.22568 0,-0.89402 0.28246,-0.89186 1.18333,0.009 1.42288,1.42288 1.6838,1.18109 -5.43333,5.03525 l -5.75,3.11381 v -13.82182 z m 12,5.07015 c 0,-0.45061 3.375,-2.30249 7.5,-4.11529 4.125,-1.8128 7.50516,-3.58163 7.51147,-3.93072 0.006,-0.34909 1.80631,-1.49461 4,-2.54559 2.19369,-1.05099 3.98853,-2.27436 3.98853,-2.71862 0,-0.44425 0.675,-0.54871 1.5,-0.23213 0.825,0.31659 1.5,0.12022 1.5,-0.43636 0,-1.2718 8.94738,-6.58796 9.74517,-5.79017 0.32349,0.32349 0.40066,0.72782 0.1715,0.89853 -2.08449,1.55269 -10.74302,6.68963 -11.27566,6.68963 -0.76246,0 -8.8569,5.12639 -9.64101,6.10586 -0.275,0.34352 -1.625,0.97597 -3,1.40545 -1.375,0.42948 -4.17856,1.84013 -6.23013,3.13478 -3.86548,2.43932 -5.76987,2.94584 -5.76987,1.53463 z m -46.6128,-16.93072 c -7.32582,-4.16025 -10.45657,-8.76728 -10.29778,-15.15364 0.0893,-3.59073 0.0915,-3.58887 1.40475,1.18641 1.60858,5.84907 3.44402,8.41925 4.65225,6.51456 0.54988,-0.86684 0.82804,-0.40912 0.83827,1.37943 0.0114,1.99618 0.81713,3.07676 3.16895,4.25 3.38039,1.68636 10.84636,2.15557 10.84636,0.68165 0,-0.49038 1.03606,-1.15163 2.30237,-1.46945 1.2663,-0.31782 3.44253,-2.31932 4.83607,-4.44778 5.39417,-8.23891 1.92671,-18.35568 -10.87836,-31.73904 -1.29203,-1.35037 -1.98732,-2.99935 -1.64302,-3.89661 0.5149,-1.34181 -0.74225,-1.55553 -9.14983,-1.55553 -11.68023,0 -12.38835,-0.54911 -12.43543,-9.64301 -0.0342,-6.61088 0.56684,-7.37171 5.79999,-7.34168 2.01149,0.0115 2.31077,0.24143 1.21596,0.93402 -0.79874,0.50529 -1.81124,0.69684 -2.25,0.42567 -0.43876,-0.27117 -0.85699,0.99602 -0.92939,2.81598 l -0.13164,3.30902 -0.73672,-3.5 -0.73672,-3.5 -0.14529,3.5 c -0.0799,1.925 -0.40319,4.625 -0.71839,6 -0.4494,1.96043 -0.34185,2.17626 0.49834,1 0.8643,-1.21001 1.07439,-0.95694 1.08675,1.30902 0.008,1.54496 0.43422,2.55012 0.94621,2.23369 0.512,-0.31644 1.21356,-0.11799 1.55902,0.44098 0.3812,0.61679 6.64507,1.01631 15.93424,1.01631 14.19843,0 15.50606,-0.15727 18.06883,-2.17315 l 2.76271,-2.17314 -1.16304,2.17314 c -0.78449,1.46584 -0.81804,2.17315 -0.10309,2.17315 0.58296,0 1.51138,-1.18741 2.06316,-2.63869 0.55177,-1.45128 1.29131,-2.3506 1.64342,-1.99849 0.35211,0.35211 0.0385,1.76452 -0.69696,3.13869 -1.28687,2.40455 -1.70678,2.49849 -11.16817,2.49849 -5.40706,0 -9.83102,0.38248 -9.83102,0.84996 0,0.46748 1.4625,2.78259 3.25,5.14469 6.53603,8.63706 7.75,10.47401 7.75,11.72713 0,0.70302 0.34015,1.27822 0.75589,1.27822 2.79882,0 5.15442,15.86055 2.48788,16.75122 -0.69093,0.23078 -0.99498,0.84232 -0.67567,1.35897 0.31931,0.51665 0.20961,0.81571 -0.24377,0.66459 -0.45338,-0.15113 -0.82433,-0.006 -0.82433,0.32153 0,1.37321 -3.11781,4.17822 -6.64326,5.97678 -4.68794,2.3916 -8.47505,2.44533 -12.46954,0.17691 z m 84.90437,-3.94733 c 1.19623,-0.3107 1.60171,-1.06356 1.2202,-2.26558 -0.54786,-1.72615 2.08687,-3.77179 3.29802,-2.56063 0.28795,0.28795 -10e-4,0.52354 -0.64312,0.52354 -0.64167,0 -1.16667,0.46156 -1.16667,1.02568 0,0.58163 1.31295,0.34673 3.0327,-0.54259 1.66798,-0.86255 2.78564,-1.96801 2.48368,-2.45658 -0.30195,-0.48857 -0.0221,-1.21394 0.62182,-1.61192 0.73122,-0.45192 0.90292,-0.29014 0.45729,0.4309 -0.89255,1.44417 -0.0505,1.46839 2.5559,0.0735 1.11095,-0.59456 2.22124,-0.87968 2.46732,-0.63361 0.65802,0.65803 -13.23773,8.73482 -14.79354,8.59863 -0.72884,-0.0638 -0.51896,-0.3254 0.4664,-0.58133 z m -33.29157,-1.30267 c -0.90129,-0.58246 -1.02463,-0.97549 -0.30902,-0.98469 0.65504,-0.008 1.4691,0.43469 1.80902,0.98469 0.7673,1.24153 0.42112,1.24153 -1.5,0 z m 0.25,-2.66228 c -1.61911,-0.65333 -1.60088,-1.9891 0.0357,-2.61712 0.7676,-0.29455 1.28572,0.2668 1.28572,1.39301 0,1.03752 -0.0161,1.85086 -0.0357,1.80744 -0.0196,-0.0434 -0.59821,-0.30592 -1.28571,-0.58333 z m -36.1644,-1.83772 c 0.10413,-1.89422 1.77076,-5.08385 1.8288,-3.5 0.0302,0.825 -0.38124,2.175 -0.9144,3 -0.53316,0.825 -0.94464,1.05 -0.9144,0.5 z m 88.45711,-6.4309 c -0.31644,-0.512 -0.0485,-1.25653 0.59549,-1.65451 0.73122,-0.45192 0.90292,-0.29014 0.45729,0.4309 -1.00604,1.62781 1.90521,1.46106 3.27339,-0.1875 0.61257,-0.7381 0.78017,-1.71025 0.37244,-2.16032 -0.40772,-0.45008 -0.21799,-0.51882 0.42164,-0.15277 1.231,0.70448 9.33704,-6.44491 9.33704,-8.23511 0,-0.57586 0.6801,-0.78604 1.51134,-0.46706 1.04211,0.39989 1.33474,0.11973 0.94253,-0.90235 -0.32419,-0.84481 0.12826,-1.74979 1.05204,-2.10427 0.89147,-0.34209 1.33624,-1.0825 0.98837,-1.64536 -0.34786,-0.56286 -1.12091,-0.7215 -1.71789,-0.35255 -0.66942,0.41372 -0.7958,0.20222 -0.32975,-0.55187 0.41561,-0.67247 1.33226,-1.00141 2.037,-0.73098 1.67791,0.64387 6.67234,-11.03397 7.12498,-16.65943 0.18568,-2.30776 0.37542,-24.67092 0.42164,-49.69592 0.0462,-25.025 0.46321,-47.525 0.92665,-50 0.49484,-2.64265 0.78051,17.58177 0.69213,49 l -0.15051,53.5 -2.40562,6 c -4.30706,10.7425 -8.5953,16.55442 -17.43271,23.62681 -4.85313,3.88386 -7.04464,4.6782 -8.11749,2.94229 z M 281.87479,324.7431 c -0.24632,-3.79357 9.3822,-19.19244 12.00055,-19.19244 0.54028,0 -1.07254,2.61551 -3.58403,5.81224 -2.51149,3.19672 -4.56635,6.29162 -4.56635,6.87755 0,0.58593 -0.64829,1.60335 -1.44064,2.26094 -0.79235,0.6576 -1.62493,2.4002 -1.85017,3.87245 -0.35769,2.33799 -0.42849,2.38473 -0.55936,0.36926 z m 81.49973,-25.65953 c 1.15201,-0.8069 4.27123,-1.9549 6.93161,-2.5511 7.29044,-1.63382 7.41883,-1.86926 7.41883,-13.60425 v -10.37756 h -10 c -8.22222,0 -10,0.26667 -10,1.5 0,1.53031 -1.17708,1.98959 -2.27788,0.88878 -0.33617,-0.33617 0.66629,-1.68617 2.22769,-3 2.03077,-1.70878 3.93646,-2.34603 6.69455,-2.23859 l 3.85564,0.1502 -4.5,0.73361 c -3.6267,0.59124 -2.79103,0.72823 4.30606,0.70587 5.52151,-0.0174 9.25138,0.4172 10,1.1652 0.77413,0.7735 1.19394,4.8954 1.19394,11.72284 0,11.90719 -0.79793,13.34453 -7.44113,13.40389 -1.95738,0.0175 -4.43238,0.6925 -5.5,1.5 -1.06762,0.80751 -2.63025,1.4682 -3.47251,1.4682 -1.11924,0 -0.96767,-0.39483 0.5632,-1.46709 z m -46.81208,-9.95735 c 0.33328,-4.19042 0.20142,-4.44932 -2.4928,-4.89474 l -2.84468,-0.47031 3,0.14475 c 2.84561,0.13729 3.01569,0.38918 3.30479,4.89474 0.16764,2.6125 -0.0606,4.75 -0.5072,4.75 -0.4466,0 -0.65365,-1.991 -0.46011,-4.42444 z m -6.75853,-6.15889 c 0.048,-1.16495 0.28494,-1.4019 0.60416,-0.60417 0.28887,0.72187 0.25335,1.58438 -0.0789,1.91667 -0.3323,0.33229 -0.56864,-0.25834 -0.52522,-1.3125 z m 27.37401,-0.63233 c -1.37111,-1.07851 -3.17048,-3.2712 -3.99862,-4.87264 -1.45185,-2.80756 -1.42431,-2.90888 0.76998,-2.83275 1.25162,0.0434 1.73846,0.29749 1.08186,0.56461 -0.65661,0.26711 -0.94695,1.129 -0.64522,1.9153 0.30174,0.78631 0.9463,1.18387 1.43237,0.88346 0.48607,-0.30041 0.61577,0.15218 0.28823,1.00574 -0.67689,1.76395 0.69682,2.07356 2.26082,0.50956 0.72318,-0.72318 1.41438,-0.59416 2.25715,0.42132 1.01952,1.22844 0.84393,1.37766 -1.09238,0.92833 l -2.30715,-0.53539 2.35883,1.74699 c 1.96418,1.45471 2.50536,1.51562 3.23469,0.36406 0.63198,-0.99787 0.88012,-1.03489 0.89117,-0.13293 0.027,2.20548 4.65698,1.3356 7.37895,-1.38636 1.45,-1.45 2.63636,-3.025 2.63636,-3.5 0,-0.475 0.69083,-0.86364 1.53518,-0.86364 1.23864,0 1.3229,0.39667 0.43618,2.05351 -2.96946,5.5485 -13.50836,7.67172 -18.5184,3.73083 z m -55.06653,-13.86614 c 0.11069,-14.21215 0.18185,-14.67122 2.80712,-18.10927 4.76005,-6.23375 7.24044,-6.81973 28.45758,-6.72298 13.43871,0.0613 17.98779,0.35832 15.84887,1.03488 -1.75171,0.55408 -9.5535,0.67314 -18.75,0.28613 -15.60658,-0.65675 -15.75,-0.64341 -15.75,1.46513 0,1.17035 -0.45,2.12791 -1,2.12791 -0.55,0 -0.8875,-0.3375 -0.75,-0.75 0.1375,-0.4125 -0.2,-0.80922 -0.75,-0.8816 -1.41282,-0.18592 -4.58792,2.17637 -3.99364,2.97129 0.2715,0.36317 0.2089,0.45057 -0.13911,0.19422 -0.34802,-0.25635 -1.58552,0.74469 -2.75,2.22452 -1.84422,2.34364 -2.19637,4.49923 -2.73082,16.71609 l -0.61356,14.02548 z m 62.61357,13.18879 c 0,-0.49116 0.65208,-1.14324 1.44907,-1.44907 0.96852,-0.37166 1.26467,-0.0755 0.89301,0.89301 -0.60696,1.58173 -2.34208,1.99368 -2.34208,0.55606 z m -35.27083,-1.71116 c -0.40105,-0.40104 -0.68859,-2.34166 -0.63898,-4.3125 l 0.0902,-3.58333 0.96234,3.3424 c 1.01553,3.52709 0.81109,5.77807 -0.41355,4.55343 z m 2.27083,-7.32236 c 0,-0.50959 3.78353,-1.07209 8.40784,-1.25 4.62431,-0.17791 8.21405,-0.0123 7.97721,0.36792 -0.23685,0.38026 1.49212,0.86414 3.84216,1.07529 2.35003,0.21115 -1.23971,0.46252 -7.97721,0.55861 -6.97809,0.0995 -12.25,-0.22403 -12.25,-0.75182 z m 54.75908,-27.81886 -9.74092,-0.32681 -2.25908,-3.93644 c -1.49039,-2.59699 -3.19481,-4.14294 -5.00908,-4.54335 -1.5125,-0.33381 -2.75,-1.02246 -2.75,-1.53033 0,-1.97022 6.62022,1.89957 8.81342,5.15181 l 2.31342,3.43051 9.93886,0.5 c 5.46637,0.275 9.93783,0.1625 9.93658,-0.25 -10e-4,-0.4125 0.75873,-0.75 1.68885,-0.75 1.47465,0 1.44265,0.18794 -0.25,1.4682 -1.06762,0.8075 -2.16613,1.38832 -2.44113,1.29071 -0.275,-0.0976 -4.88341,-0.32456 -10.24092,-0.5043 z m -33.73631,-2.2821 c -0.0125,-0.84013 0.67955,-2.5302 1.53793,-3.75572 1.7303,-2.47034 7.4393,-5.80114 7.4393,-4.3403 0,0.51032 -1.26874,1.37014 -2.81941,1.91071 -1.64826,0.57459 -3.50806,2.38063 -4.47723,4.34783 -0.9118,1.85073 -1.66807,2.6776 -1.68059,1.83748 z m 45.97723,-1.97251 c -1.2819,-0.82843 -1.24555,-0.9716 0.25,-0.98469 0.9625,-0.008 1.75,0.43469 1.75,0.98469 0,1.21961 -0.11279,1.21961 -2,0 z m -0.21669,-7.25 c 0.66391,-7.11744 1.73855,-9.61771 4.60162,-10.70625 1.33143,-0.50621 2.71606,-1.39814 3.07695,-1.98207 1.3362,-2.16201 2.45564,-0.97476 1.35617,1.43832 -0.74253,1.62966 -1.95353,2.5 -3.47857,2.5 -1.67281,0 -2.33948,0.56993 -2.33948,2 0,1.1 -0.45,2 -1,2 -0.55,0 -1,1.8145 -1,4.03222 0,3.24694 0.4382,4.20836 2.25,4.93662 2.0738,0.83356 2.00699,0.90935 -0.85321,0.96777 l -3.1032,0.0634 0.48972,-5.25 z m -35.78331,-2.34362 c 0,-1.32351 0.47656,-2.40638 1.05902,-2.40638 0.58246,0 0.7809,0.45 0.44098,1 -0.33992,0.55 -0.0933,1 0.54797,1 0.6413,0 0.91961,-0.6421 0.61846,-1.42689 -0.67448,-1.75767 1.02549,-3.24716 4.33357,-3.797 1.375,-0.22854 -1.4375,-0.46827 -6.25,-0.53273 -4.8125,-0.0645 -8.75,0.22647 -8.75,0.64651 0,0.42005 1.30935,0.57155 2.90967,0.33668 1.60032,-0.23488 3.68633,0.008 4.63559,0.53882 1.30018,0.72762 0.64412,0.93649 -2.65967,0.84678 -2.41208,-0.0655 -5.49822,-0.90504 -6.8581,-1.86563 -1.35987,-0.9606 -1.92237,-1.74654 -1.25,-1.74654 0.67238,0 1.22251,-0.483 1.22251,-1.07332 0,-0.59033 -0.7875,-0.91059 -1.75,-0.71169 -0.9625,0.1989 -1.69343,1.09631 -1.62429,1.99424 0.0771,1.00099 -0.40653,1.42837 -1.25,1.1047 -0.7752,-0.29747 -1.37571,0.10081 -1.37571,0.91241 0,2.24975 1.08699,2.79747 3.25216,1.63871 1.54635,-0.82758 1.8145,-0.78192 1.20447,0.20512 -0.56835,0.91962 -0.2869,1.07868 1.02077,0.57688 1.52626,-0.58569 1.61002,-0.45731 0.5416,0.83006 -1.89362,2.28167 -4.76544,1.83951 -6.64066,-1.02245 -2.42556,-3.70186 -0.38712,-7.33436 3.99155,-7.11294 2.09603,0.10599 3.09754,0.65383 3.03151,1.65828 -0.0832,1.26556 1.57792,1.4476 10.62832,1.16475 l 10.72691,-0.33524 3.12169,3.05154 c 2.2385,2.18821 3.12168,2.60206 3.12168,1.4628 0,-1.32737 0.25716,-1.37531 1.56319,-0.29141 1.41226,1.17207 1.40172,1.3877 -0.10916,2.23322 -1.72159,0.96345 -7.27671,-0.79631 -6.13088,-1.94215 0.31989,-0.31988 -0.1128,-1.27601 -0.96152,-2.12474 -1.01751,-1.01751 -1.76768,-1.18161 -2.20238,-0.48176 -0.36259,0.58375 -1.78425,1.21923 -3.15925,1.41217 -1.375,0.19295 -2.55625,0.91332 -2.625,1.60082 -0.0688,0.6875 -0.18125,1.87252 -0.25,2.63337 -0.0688,0.76085 -1.025,1.61872 -2.125,1.90638 -1.59081,0.41601 -2,0.0307 -2,-1.88337 z m 20.53305,-5.58402 c -0.7514,-2.8197 -3.05874,-4.39883 -4.06004,-2.77869 -0.32508,0.52598 -0.2924,1.43955 0.0726,2.03015 0.36501,0.59061 -0.28343,0.48236 -1.44099,-0.24054 -1.15753,-0.72291 -2.10462,-1.67063 -2.10462,-2.10605 0,-1.18441 4.16807,-2.49604 6.22364,-1.9585 1.8752,0.49038 3.31635,4.20587 2.49729,6.43836 -0.26143,0.71258 -0.79462,0.091 -1.18788,-1.38473 z m 22.46695,1.17764 c 0,-0.55 0.45,-1 1,-1 0.55,0 1,0.45 1,1 0,0.55 -0.45,1 -1,1 -0.55,0 -1,-0.45 -1,-1 z m 3,-8.94098 c 0,-0.51754 0.45,-1.2191 1,-1.55902 0.55,-0.33992 1.08671,-3.85398 1.19268,-7.80902 l 0.19268,-7.19098 0.36073,6.46915 c 0.39426,7.07068 -0.23944,11.03085 -1.76514,11.03085 -0.53952,0 -0.98095,-0.42344 -0.98095,-0.94098 z m 2.15789,-20.05902 c 0,-1.375 0.22698,-1.9375 0.50439,-1.25 0.27741,0.6875 0.27741,1.8125 0,2.5 -0.27741,0.6875 -0.50439,0.125 -0.50439,-1.25 z m -22.38006,-3.74866 -19.72216,-0.29343 -0.27784,-30.97949 c -0.1528,-17.03871 0.0597,-30.97924 0.47217,-30.97895 0.4125,2.9e-4 0.75,12.85511 0.75,28.56627 0,18.32324 0.3825,29.28044 1.06676,30.559 1.01304,1.89289 1.9973,1.98264 19.54824,1.7825 12.86733,-0.14673 18.83136,0.13912 19.63325,0.94101 0.869,0.869 0.79578,1.09587 -0.29825,0.92414 -0.7975,-0.12519 -10.32497,-0.35966 -21.17217,-0.52105 z m 51.04187,-3.47108 c -0.31479,-1.61295 -0.13903,-2.47762 0.43189,-2.12477 1.04489,0.64578 0.0468,-3.44274 -1.25851,-5.15549 -0.41917,-0.55 -1.07323,-2.45513 -1.45347,-4.23362 -0.68272,-3.19337 -3.02743,-6.47451 -9.20448,-12.88058 -2.31008,-2.39573 -2.84933,-3.54409 -1.99657,-4.25182 1.68408,-1.39766 9.6944,9.73379 13.03301,18.11118 2.12303,5.32722 2.50847,7.42938 1.83352,10 l -0.85461,3.25484 z m -58.5697,0.48075 c 3.1625,-0.19845 8.3375,-0.19845 11.5,0 3.1625,0.19845 0.575,0.36082 -5.75,0.36082 -6.325,0 -8.9125,-0.16237 -5.75,-0.36082 z m 55.82895,-5.84434 c 0.048,-1.16495 0.28494,-1.4019 0.60416,-0.60417 0.28887,0.72187 0.25335,1.58437 -0.0789,1.91667 -0.33229,0.33229 -0.56864,-0.25834 -0.52522,-1.3125 z m -13.82895,-24 c 0.90778,-0.90779 -2.92482,-4.29695 -5.62574,-4.97484 -1.33464,-0.33497 -3.2815,-1.35892 -4.32636,-2.27544 -2.20092,-1.93058 -4.93887,-3.56379 -11.50948,-6.86549 -4.31114,-2.16634 -6.904,-4.3009 -5.2243,-4.3009 0.75576,0 12.64261,6.20124 13.43588,7.00936 1.19471,1.21707 9.03854,5.99064 9.8437,5.99064 1.30826,0 6.1563,3.99462 6.1563,5.07258 0,0.51008 -0.75,0.92742 -1.66667,0.92742 -0.91666,0 -1.40416,-0.2625 -1.08333,-0.58333 z m -34.22104,-21.37761 c -2.44456,-1.54599 -0.71243,-1.97861 1.97255,-0.49267 1.44849,0.80164 1.86811,1.3912 0.99849,1.40286 -0.825,0.0111 -2.16197,-0.39852 -2.97104,-0.91019 z m -6.27896,-3.33848 c -1.5125,-0.59767 -2.75,-1.61854 -2.75,-2.26862 0,-1.08875 -4.9318,-2.8435 -7.67092,-2.72934 -0.64401,0.0268 -0.91343,-0.6222 -0.59873,-1.44231 0.44649,-1.16354 0.0721,-1.33238 -1.70431,-0.76858 -1.47699,0.46878 -2.05119,0.35798 -1.63496,-0.3155 0.35285,-0.57092 0.1842,-1.32069 -0.37477,-1.66615 -0.55897,-0.34546 -1.01631,-1.1213 -1.01631,-1.72408 0,-0.6243 0.75315,-0.43187 1.75,0.44712 0.9625,0.8487 4.13604,2.83094 7.05231,4.40498 8.47338,4.57347 9.30455,5.06876 10.48187,6.24608 1.34238,1.34238 0.17401,1.28169 -3.53418,-0.1836 z"
         id="path2325" />
    </g>
  </g>
</svg>
